<?xml version="1.0" encoding="utf-8"?>
<!DOCTYPE svg PUBLIC "-//W3C//DTD SVG 1.0//EN" "http://www.w3.org/TR/2001/REC-SVG-20010904/DTD/svg10.dtd">
<svg version="1.0" xmlns="http://www.w3.org/2000/svg" width="666px" height="375px" viewBox="0 0 666 375" preserveAspectRatio="xMidYMid meet">
 <g fill="#000000">
  <path d="M15.8 336.3 c-1.8 -0.8 -3.6 -1.9 -3.9 -2.5 -0.4 -0.7 -0.6 -22.1 -0.4 -47.7 0.2 -25.6 0.4 -82.2 0.5 -125.8 0.2 -57.7 0.5 -79.6 1.4 -80.7 1.1 -1.5 10.1 -9 25.2 -21.1 4.7 -3.8 10.3 -8.4 12.3 -10.1 2 -1.7 5.6 -4.5 8.1 -6.3 2.5 -1.8 6.7 -5.3 9.4 -7.9 l5 -4.7 48.5 -0.1 c26.7 0 50.2 0.3 52.1 0.6 2.3 0.4 7.8 4 15.8 10.1 6.8 5.2 14.6 11 17.3 12.9 2.7 1.9 6.6 4.7 8.7 6.2 l3.8 2.8 188.9 0.2 c180 0.3 189.2 0.4 193 2.1 2.2 1 5.4 2.5 7 3.4 1.7 0.8 10.9 5.5 20.6 10.3 9.6 4.9 18.2 9.6 18.9 10.5 1.7 2 1.5 -5.1 2.3 108 0.4 50.6 1 100.8 1.2 111.6 0.6 20.1 0.1 24.1 -3.1 25.3 -2.2 0.9 -72.7 1.5 -364.4 3.2 -216.8 1.2 -264.7 1.2 -268.2 -0.3z m215.7 -8.8 c34.1 -0.3 87 -0.7 117.5 -1 30.5 -0.3 108.3 -0.9 172.9 -1.4 64.5 -0.6 117.5 -1.2 117.8 -1.5 0.9 -0.9 -1.6 -226.9 -2.5 -227.8 -0.9 -0.9 -5.5 -3.4 -13.4 -7.4 -2.7 -1.3 -4.8 -2.9 -4.8 -3.4 0 -0.6 -0.8 -1 -1.7 -1.1 -1 0 -4.3 -1.3 -7.3 -2.9 -3 -1.6 -7.5 -3.8 -10 -5 -2.4 -1.2 -4.8 -2.7 -5.2 -3.3 -1.1 -1.8 -108 -1.7 -108.6 0.1 -0.5 1.5 -6.9 1.6 -7.4 0.2 -0.5 -1.7 -25 -1.9 -25.5 -0.2 -0.6 1.5 -11 1.7 -11.5 0.2 -0.4 -1.4 -22.1 -1.5 -22.6 -0.1 -0.5 1.6 -10.2 1.4 -10.3 -0.1 0 -1 -0.2 -1 -0.6 0 -0.7 1.7 -22.3 1.7 -22.4 0 0 -1 -0.2 -1 -0.6 0 -0.6 1.5 -10.3 1.7 -10.3 0.2 0 -0.5 -0.7 -1 -1.5 -1 -0.8 0 -1.5 0.5 -1.5 1 0 0.7 -26.6 1 -77.9 1 l-77.9 0 -5.1 -4 c-2.8 -2.2 -5.3 -4 -5.6 -4 -0.3 0 -1.7 -1 -3 -2.3 -3.6 -3.3 -5.3 -4.7 -6 -4.7 -0.3 0 -3.4 -2.1 -6.8 -4.7 -3.4 -2.7 -8.6 -6.4 -11.4 -8.3 -2.9 -1.9 -5.3 -4.1 -5.3 -4.7 0 -0.9 -2 -1.3 -6.7 -1.3 -3.8 0 -24.8 -0.2 -46.8 -0.4 l-40 -0.5 -15.3 13.5 c-8.4 7.3 -16 13.4 -16.8 13.4 -0.8 0 -1.4 0.6 -1.4 1.4 0 1.7 -4.3 4.6 -7 4.6 -1.4 0 -2 0.7 -2 2.3 0 1.2 -0.9 2.8 -2 3.5 -3.8 2.3 -1 3.2 10.6 3.2 l11.4 0 0 3.5 c0 2.4 -0.5 3.5 -1.5 3.5 -1.3 0 -1.5 11.8 -1.5 100 0 88 0.2 100.1 1.5 100.6 0.8 0.4 1.5 1.2 1.5 2 0 0.8 0.6 1.4 1.3 1.4 0.6 0.1 2.4 1.1 3.8 2.3 l2.7 2.2 -0.5 14.2 -0.6 14.3 -2.8 1.2 c-1.6 0.7 -2.9 1.6 -2.9 2 0 0.4 25.1 0.5 55.8 0.3 30.6 -0.3 83.6 -0.7 117.7 -1z m-183.5 -7.5 l6 -3 0 -4.9 c0 -6.9 -1.5 -10.4 -5.4 -12.5 -1.9 -1 -3.9 -2.8 -4.5 -3.9 -0.8 -1.6 -1.2 -30.1 -1.4 -102.1 -0.2 -92.8 -0.3 -100 -1.9 -101 -0.9 -0.5 -2 -0.8 -2.3 -0.5 -0.3 0.4 -0.8 47.4 -1.1 104.5 l-0.6 103.9 -4.4 4.7 c-2.4 2.5 -4.6 5.9 -4.9 7.5 -0.4 1.5 -0.8 3.6 -1 4.6 -0.4 2.1 2.6 3.5 10 4.7 2.8 0.4 5.1 0.8 5.3 0.9 0.1 0 2.9 -1.3 6.2 -2.9z m-22 -51.8 c0.8 -37.1 1.2 -176.6 0.5 -179.5 -1 -3.8 -2.5 -3.3 -2.5 0.8 0 2.4 -0.5 3.5 -1.5 3.5 -1.2 0 -1.5 1.4 -1.5 7 0 5.9 0.3 7 1.7 7 1.5 0 1.6 2 1 23.2 -0.4 12.8 -0.7 34.2 -0.7 47.6 0 20.8 -0.2 24.2 -1.5 24.2 -1.2 0 -1.5 1.8 -1.5 9.9 0 7.9 0.3 10 1.5 10.5 1 0.4 1.5 2 1.5 5.1 0 3.3 -0.4 4.5 -1.5 4.5 -1.9 0 -2.1 6.6 -0.2 7.3 0.9 0.3 1.1 6.5 0.9 27.8 -0.4 26.6 -0.3 27.3 1.5 25.6 1.6 -1.6 1.9 -4.1 2.3 -24.5z"/>
  <path d="M188 316 c-9.9 -1 -20.8 -3.6 -22.6 -5.5 -0.9 -0.8 -2.9 -1.5 -4.5 -1.5 -3.8 0 -21 -8.7 -28.8 -14.6 -5.9 -4.4 -22.1 -20.8 -22.1 -22.4 0 -0.4 -1.3 -2.2 -2.9 -3.9 -3.3 -3.6 -9.9 -16.5 -13.5 -26.6 -10.1 -28.2 -8.4 -64 4.4 -91.2 15.3 -32.8 47 -56.7 83.4 -63.2 4.1 -0.8 60.4 -1.1 175 -1.1 175.4 0.1 170 0 187.8 3.9 12.4 2.7 32.8 13.1 40 20.3 2.1 2.1 4.2 3.8 4.7 3.8 0.7 0 10.4 10 14.2 14.7 8.3 10.3 15.5 24.1 19.4 37.3 6.1 20.3 5.8 51.7 -0.6 72.5 -5.3 17.3 -20.8 41.8 -27 42.7 -1.7 0.2 -2.5 1.1 -2.7 2.7 -0.2 1.4 -1.4 3.2 -2.5 4.2 -1.2 0.9 -3.5 2.9 -5.2 4.4 -4.9 4.3 -11 8.3 -13.8 9.1 -1.5 0.3 -2.7 1 -2.7 1.5 0 0.5 -1.2 0.9 -2.7 0.9 -3.6 0 -13.3 4 -13.3 5.6 0 0.7 -2.2 1.3 -5.6 1.6 -3.1 0.3 -5.9 1 -6.2 1.5 -1 1.5 -15.4 3.7 -19.7 3 -1.9 -0.3 -3.5 -0.2 -3.5 0.4 0 1.1 -317.7 1 -329 -0.1z"/>
 </g>
 <g fill="#08090b">
  <path d="M20 330.5 c0 -0.8 -0.8 -1.5 -1.7 -1.6 -1.3 0 -1.1 -0.3 0.6 -1 3.2 -1.3 5.1 -0.5 5.1 2.1 0 1.3 -0.7 2 -2 2 -1.1 0 -2 -0.7 -2 -1.5z"/>
  <path d="M51 330.4 c0 -1.9 3.3 -5.2 7.3 -7.3 2.6 -1.4 2.7 -1.8 2.7 -9.3 0 -7.2 0.2 -7.8 2.1 -7.8 1.9 0 2 0.5 1.7 11 -0.2 8.6 0 11 1 11 0.8 0 1.2 0.8 1 1.8 -0.3 1.4 -1.6 1.7 -8.1 2 -6.7 0.2 -7.7 0.1 -7.7 -1.4z"/>
  <path d="M70 329.9 c0 -1.8 1 -1.9 31 -1.9 25.8 0 31 0.2 31 1.4 0 2.3 -4 2.7 -33.5 2.6 -27.5 -0.1 -28.5 -0.2 -28.5 -2.1z"/>
  <path d="M201 329 c0 -2 0.6 -2 31 -2 25.7 0 31 0.2 31 1.4 0 0.7 -0.8 1.6 -1.7 1.8 -1 0.3 -15 0.6 -31 0.7 -28.8 0.1 -29.3 0.1 -29.3 -1.9z"/>
  <path d="M266.8 330.2 c-3.4 -0.7 -2 -3.2 1.7 -3.2 2.3 0 3.5 0.5 3.5 1.4 0 1.5 -2.5 2.4 -5.2 1.8z"/>
  <path d="M275.8 330.3 c-3.6 -0.9 -2 -3.3 2.2 -3.3 2.9 0 4 0.4 4 1.5 0 0.8 -0.4 1.5 -0.9 1.5 -0.5 0 -1.5 0.2 -2.3 0.4 -0.7 0.2 -2.1 0.2 -3 -0.1z"/>
  <path d="M329 328 c0 -1.7 0.7 -2 4.5 -2 3.7 0 4.5 0.3 4.5 1.8 0 1.5 -0.9 1.9 -4.5 2 -3.9 0.2 -4.5 -0.1 -4.5 -1.8z"/>
  <path d="M345 327.8 c0 -1.7 1.4 -1.8 25 -1.8 20.9 0 25 0.2 25 1.4 0 2.2 -3.7 2.5 -27.7 2.4 -20.9 -0.1 -22.3 -0.2 -22.3 -2z"/>
  <path d="M485.8 328.3 c-1 -0.2 -1.8 -1.1 -1.8 -1.9 0 -1.1 1.5 -1.4 6 -1.4 4.7 0 6 0.3 6 1.5 0 0.8 -0.6 1.5 -1.2 1.6 -0.7 0 -2.6 0.2 -4.3 0.3 -1.6 0.2 -3.8 0.1 -4.7 -0.1z"/>
  <path d="M532.8 328.2 c-3.4 -0.7 -2 -3.2 1.7 -3.2 2.3 0 3.5 0.5 3.5 1.4 0 1.5 -2.5 2.4 -5.2 1.8z"/>
  <path d="M48 321.5 c0 -2.1 0.5 -2.5 3 -2.5 l3 0 0 -6.5 c0 -5.1 0.3 -6.5 1.5 -6.5 0.8 0 1.5 0.6 1.6 1.3 0 0.6 0.2 3 0.4 5.2 0.5 5.8 -0.2 7.3 -4.5 9.5 -4.9 2.5 -5 2.5 -5 -0.5z"/>
  <path d="M190 316.3 c0 -0.5 -2.8 -0.9 -6.3 -1 -6.5 -0.2 -24 -4.7 -24.5 -6.4 -0.2 -0.5 -1.2 -0.9 -2.3 -0.9 -2.8 0 -10.9 -4.2 -10.9 -5.7 0 -0.7 -1.1 -1.3 -2.5 -1.3 -2 0 -2.5 -0.5 -2.5 -2.4 0 -2.8 2.5 -3 5.2 -0.3 1 1 2.3 1.5 2.8 1.2 0.6 -0.4 1 -0.1 1 0.5 0 0.6 0.5 0.8 1 0.5 0.6 -0.3 1 -0.1 1 0.5 0 0.6 0.5 0.8 1 0.5 0.6 -0.3 1 -0.1 1 0.5 0 0.6 0.5 0.8 1 0.5 0.6 -0.3 1 -0.2 1 0.3 0 1.1 4.9 3.4 6 2.7 1.1 -0.7 7 1.5 7 2.7 0 0.6 0.7 0.8 1.5 0.4 0.8 -0.3 1.5 0 1.5 0.5 0 0.6 0.9 0.9 2 0.6 1.1 -0.3 2 -0.1 2 0.5 0 0.6 1.1 0.7 2.5 0.4 1.4 -0.4 2.5 -0.2 2.5 0.4 0 0.5 0.7 1 1.5 1 0.8 0 1.5 -0.4 1.5 -1 0 -0.5 0.5 -1 1 -1 0.6 0 1 0.7 1 1.5 0 1 1 1.5 3 1.5 1.7 0 3 -0.4 3 -1 0 -1.6 5 -1.2 5.6 0.5 0.4 0.8 1.2 1.5 2 1.5 0.8 0 1.4 0.7 1.4 1.5 0 1.2 -1.3 1.5 -5.5 1.5 -3 0 -5.5 -0.3 -5.5 -0.7z"/>
  <path d="M511 315.5 c0 -0.8 0.7 -1.5 1.5 -1.5 0.8 0 1.5 -0.4 1.5 -0.9 0 -1.8 4 -2.2 7.6 -0.9 2.9 1 3.7 1 4.3 -0.1 0.6 -0.9 1.8 -1.1 3.5 -0.7 1.9 0.5 2.6 0.3 2.6 -0.9 0 -1.8 0.5 -1.8 3.1 -0.5 1.1 0.6 1.9 0.7 1.9 0.2 0 -1.3 8.5 -3.3 10.4 -2.6 1 0.4 1.6 0.1 1.6 -0.8 0 -1.9 12.1 -7.1 14.5 -6.2 1.4 0.6 1.7 0.4 1.2 -0.9 -0.5 -1.2 0.1 -1.5 2.4 -1.5 2.4 0.1 2.9 0.5 2.9 2.5 0 1.6 -0.6 2.3 -2 2.3 -1.1 0 -2 0.4 -2 0.9 0 1.1 -11.5 6.1 -14.1 6.1 -1 0 -1.9 0.4 -1.9 0.9 0 0.5 -2.4 1.4 -5.2 2 -2.9 0.7 -7.6 1.7 -10.4 2.3 -2.8 0.6 -6.8 0.9 -8.8 0.6 -2 -0.2 -3.6 0 -3.6 0.4 0 0.4 -2.5 0.8 -5.5 0.8 -4.2 0 -5.5 -0.3 -5.5 -1.5z"/>
  <path d="M469.2 306.4 c-2.3 -1.6 -2.7 -3.9 -1.6 -9.3 0.6 -3 3.4 -4.5 3.4 -1.7 0 0.8 0.7 1.6 1.5 2 0.9 0.3 1.5 0 1.5 -0.9 0 -1.6 1.8 -2 3.5 -0.7 1.4 0.9 1.7 5.9 0.5 6.7 -0.6 0.3 -1 -0.1 -1 -0.9 0 -0.9 -0.7 -1.6 -1.5 -1.6 -1.3 0 -1.9 2.2 -1.8 6.8 0.1 1.7 -1.8 1.5 -4.5 -0.4z"/>
  <path d="M519 306.1 c0 -0.5 -0.3 -1.6 -0.6 -2.4 -0.3 -1 0.1 -1.7 1.3 -1.9 1.6 -0.3 1.5 -0.5 -0.4 -1 -1.8 -0.5 -2.3 -0.1 -2.8 2.4 -0.9 3.7 -3.5 3.4 -4.8 -0.5 -1.1 -3.5 -0.2 -4.7 1.8 -2.1 1.4 1.8 1.4 1.7 1.5 -1.1 0 -2.1 0.3 -2.6 0.9 -1.6 1.1 1.7 4.1 0.7 4.1 -1.4 0 -0.8 0.4 -1.5 1 -1.5 1 0 1.5 1.8 2.4 8.3 0.4 3.4 0.3 3.7 -2 3.7 -1.3 0 -2.4 -0.4 -2.4 -0.9z"/>
  <path d="M534.2 305.8 c-0.7 -0.7 -1.2 -1.8 -1.2 -2.5 0 -0.7 -0.7 -1.3 -1.5 -1.3 -0.8 0 -1.5 -0.7 -1.5 -1.5 0 -0.8 0.6 -1.5 1.3 -1.5 0.8 0 2.2 -0.9 3.2 -2 1.7 -1.9 1.9 -1.9 3.1 -0.2 1.8 2.3 1.7 3 -0.3 3.5 -1.7 0.4 -1.7 0.5 0 0.6 2.7 0.2 1.5 6.1 -1.3 6.1 -0.3 0 -1.1 -0.5 -1.8 -1.2z"/>
  <path d="M61.4 300.2 c0.6 -0.9 -3.7 -4.4 -6.8 -5.5 -1 -0.4 -1.6 -1 -1.3 -1.4 0.4 -0.3 -0.1 -1.2 -1.1 -1.9 -1.5 -1.2 -1.2 -1.3 2.1 -1.4 3.1 0 4 0.4 4.4 2 0.3 1.1 1.4 2 2.4 2 1.5 0 1.9 0.7 1.9 3.5 0 1.9 -0.5 3.5 -1.1 3.5 -0.5 0 -0.8 -0.4 -0.5 -0.8z"/>
  <path d="M496.5 298 c-1.8 -3.4 -1.8 -4 -0.5 -4 0.6 0 1 0.5 1 1.1 0 0.6 0.7 1.7 1.5 2.5 1.3 1.4 1.5 1.3 1.5 -0.5 0 -1.2 0.6 -2.1 1.5 -2.1 1.8 0 2 3.1 0.3 4.8 -2 2 -3.7 1.4 -5.3 -1.8z"/>
  <path d="M26 289.5 c0 -3.2 0.4 -4.5 1.4 -4.5 1.9 0 2.9 4.6 1.6 7 -1.8 3.3 -3 2.3 -3 -2.5z"/>
  <path d="M580.5 290.4 c1.7 -1.3 1.8 -1.6 0.5 -2.5 -1.2 -0.8 -1.1 -0.9 0.5 -0.7 2.7 0.4 8.4 -4 6.7 -5.1 -1.6 -1 3.1 -5.5 5 -4.9 0.7 0.3 1.8 -0.2 2.5 -1.1 1 -1.4 1.2 -1 1.3 1.9 0 2.9 -0.8 4.3 -3.9 7.3 -2.2 2 -4.6 3.7 -5.5 3.7 -0.9 0 -1.6 0.7 -1.6 1.5 0 1.1 -1.1 1.5 -3.7 1.5 -3.6 -0.1 -3.7 -0.1 -1.8 -1.6z"/>
  <path d="M26 260 c0 -19.8 0.1 -21 1.9 -21 1.7 0 1.8 1.1 1.6 19.8 -0.3 23.5 -0.1 22.2 -2 22.2 -1.3 0 -1.5 -3 -1.5 -21z"/>
  <path d="M112.3 275.5 c-0.7 -0.8 -1.3 -1.9 -1.3 -2.5 0 -0.5 -0.4 -1 -1 -1 -0.5 0 -1 -1.6 -1 -3.5 0 -3.1 0.2 -3.4 1.8 -2.4 1 0.6 2.4 2.4 3.1 4 0.7 1.6 1.6 2.7 2 2.5 0.3 -0.2 1.1 0.7 1.8 2 1 2.2 0.9 2.4 -1.5 2.4 -1.5 -0.1 -3.3 -0.7 -3.9 -1.5z"/>
  <path d="M19.3 244 c-0.3 -1.1 -0.9 -2 -1.4 -2 -0.5 0 -0.9 -3.2 -0.9 -7.1 0 -5.7 0.3 -7 1.4 -6.6 0.9 0.4 1.3 0 1.2 -1.1 -0.2 -0.9 -0.8 -1.8 -1.4 -2 -0.8 -0.2 -1.2 -4.4 -1.2 -13.3 0 -10.8 0.2 -12.9 1.5 -12.9 0.8 0 1.5 -0.7 1.5 -1.5 0 -0.8 -0.7 -1.5 -1.5 -1.5 -0.8 0 -1.5 -0.9 -1.5 -2 0 -1.1 0.7 -2 1.5 -2 0.8 0 1.5 -0.7 1.5 -1.5 0 -0.8 0.7 -1.5 1.5 -1.5 1.3 0 1.5 3.8 1.5 28.5 0 25.4 -0.2 28.5 -1.6 28.5 -0.9 0 -1.8 -0.9 -2.1 -2z"/>
  <path d="M43 241 c0 -2.7 0.4 -4 1.4 -4 1.6 0 2.6 3.2 1.9 6 -1 3.7 -3.3 2.3 -3.3 -2z"/>
  <path d="M206.7 225 c-0.4 -1.4 -1.4 -2 -3.2 -2 l-2.8 0 0.5 -6.5 c0.4 -4.5 0.2 -6.5 -0.6 -6.5 -0.6 0 -0.5 -0.4 0.3 -0.9 2.3 -1.5 4 -0.1 4.7 3.7 0.9 5.3 2.3 7.5 2.4 3.8 0 -2.1 0.4 -2.7 1.5 -2.2 2.1 0.8 1.9 -1.1 -0.2 -2.3 -1.7 -1 -1.7 -1.2 0.1 -2.6 1.6 -1.2 2.2 -1.2 3.4 -0.2 1.2 0.9 1.6 0.9 1.9 -0.1 0.6 -1.7 6.3 3.8 6.3 6.1 0 1 -0.7 2 -1.5 2.3 -0.8 0.4 -1.5 1.2 -1.5 1.9 0 0.7 -1 1.1 -2.5 0.9 -1.9 -0.2 -2.6 0.2 -2.4 1.4 0.3 3.3 -0.1 5.2 -1.1 5.2 -0.5 0 -1 -1.2 -1.1 -2.7 l-0.1 -2.8 -1.1 2.8 c-1.3 3.2 -2.3 3.5 -3 0.7z m-2.5 -7.6 c-0.3 -2.5 -0.7 -3.2 -1.3 -2.3 -1.3 2.1 -1.1 5.9 0.4 5.9 0.9 0 1.2 -1.1 0.9 -3.6z m13.8 -1.9 c0 -2.9 -3.4 -3.6 -4.4 -0.9 -1 2.7 -0.7 3.4 1.9 3.4 2 0 2.5 -0.5 2.5 -2.5z"/>
  <path d="M231.9 225.3 c-0.1 -1 -0.2 -3.8 -0.1 -6.3 l0 -4.5 -1 3.3 c-1.3 3.9 -3.1 4.1 -4.5 0.5 -1.1 -2.8 -1.1 -2.8 -1.2 1 -0.1 2 -0.5 3.7 -1.1 3.7 -0.5 0 -1 -0.6 -1.1 -1.2 0 -0.7 -0.2 -3.9 -0.5 -7.1 -0.4 -5.1 -0.3 -5.8 1.2 -5.5 1.9 0.4 3 2.1 3.9 6.3 l0.7 3 1 -2.5 c0.6 -1.4 1 -3.7 1 -5.2 -0.1 -2.9 1.5 -3.8 2.3 -1.5 0.3 0.7 2.6 1.3 5.5 1.3 5.5 0.2 8 1.6 8 4.5 0 2.5 -1.7 2.4 -2.5 0 -1.5 -4.9 -4.8 -2.2 -5.4 4.4 -0.2 3.2 -2.1 1.3 -2.2 -2.2 -0.1 -5.6 -1.7 -1.2 -1.8 5 -0.1 4.4 -1.9 6.8 -2.2 3z"/>
  <path d="M639 221 c0 -5.5 2.3 -7.1 3.4 -2.5 0.8 3.3 -0.3 7.5 -2 7.5 -1 0 -1.4 -1.4 -1.4 -5z"/>
  <path d="M622 222 c0 -1.1 -0.4 -2 -1 -2 -0.5 0 -1 -0.4 -1 -1 0 -0.5 0.7 -1 1.5 -1 0.8 0 1.5 -0.7 1.5 -1.5 0 -0.8 0.7 -1.5 1.5 -1.5 1.1 0 1.5 1.2 1.5 4.5 0 3.8 -0.3 4.5 -2 4.5 -1.3 0 -2 -0.7 -2 -2z"/>
  <path d="M43 218 c0 -2.7 0.4 -4 1.4 -4 1.6 0 2.6 3.2 1.9 6 -1 3.7 -3.3 2.3 -3.3 -2z"/>
  <path d="M252 219.1 c0 -0.6 0.6 -1.1 1.4 -1.1 1.7 0 2.7 -2.3 1.6 -4 -1.1 -1.8 -5.7 -0.5 -6.3 1.8 -0.3 0.9 -0.5 -0.2 -0.6 -2.4 -0.1 -3.8 0.2 -4.2 2.6 -4.7 2.1 -0.4 3.3 0.2 5.6 2.6 2.7 2.9 2.8 3.4 1.5 5.7 -1.4 2.5 -5.8 4.1 -5.8 2.1z"/>
  <path d="M624 212.6 c0 -0.8 -0.8 -1.7 -1.7 -1.9 -1.7 -0.4 -1.7 -0.5 0 -0.6 0.9 0 1.7 -0.8 1.7 -1.6 0 -0.8 0.7 -1.5 1.5 -1.5 1 0 1.5 1.1 1.5 3.5 0 2.4 -0.5 3.5 -1.5 3.5 -0.8 0 -1.5 -0.6 -1.5 -1.4z"/>
  <path d="M87 201.5 c0 -9.4 0.2 -10.5 1.8 -10.5 1.6 0 1.8 1.1 1.8 10.5 0 9.4 -0.2 10.5 -1.8 10.5 -1.6 0 -1.8 -1.1 -1.8 -10.5z"/>
  <path d="M43 207 c0 -2.7 0.4 -4 1.4 -4 1.6 0 2.6 3.2 1.9 6 -1 3.7 -3.3 2.3 -3.3 -2z"/>
  <path d="M43 176 c0 -16.6 0.2 -20 1.4 -20 2.1 0 2.4 3.6 2.1 21.5 -0.3 19.5 -0.2 18.5 -2 18.5 -1.3 0 -1.5 -2.9 -1.5 -20z"/>
  <path d="M624 192.5 c0 -0.8 -0.7 -1.5 -1.5 -1.5 -0.8 0 -1.5 -0.7 -1.5 -1.5 0 -0.8 0.5 -1.5 1 -1.5 0.6 0 1 -0.7 1 -1.6 0 -0.9 0.7 -1.4 1.8 -1.2 2.4 0.4 3.1 8.8 0.8 8.8 -0.9 0 -1.6 -0.7 -1.6 -1.5z"/>
  <path d="M88 184.5 c0 -2.8 0.4 -3.5 2 -3.5 2.1 0 2.4 1 1.4 4.8 -1 3.6 -3.4 2.7 -3.4 -1.3z"/>
  <path d="M20 183.6 c0 -0.8 -0.8 -1.7 -1.7 -1.9 -1.7 -0.4 -1.7 -0.5 0 -0.6 0.9 0 1.7 -0.8 1.7 -1.6 0 -0.8 0.7 -1.5 1.5 -1.5 1 0 1.5 1.1 1.5 3.5 0 2.4 -0.5 3.5 -1.5 3.5 -0.8 0 -1.5 -0.6 -1.5 -1.4z"/>
  <path d="M43 141.5 c0 -4.2 0.3 -5.5 1.5 -5.5 0.8 0 1.5 0.6 1.6 1.3 0 0.6 0.2 2.1 0.4 3.2 0.6 3 -0.5 6.5 -2.1 6.5 -1 0 -1.4 -1.5 -1.4 -5.5z"/>
  <path d="M602.4 134.5 c-0.4 -0.8 -1.2 -1.5 -2 -1.5 -0.8 0 -1.3 -0.3 -1.2 -0.7 0.4 -1.6 -2.3 -5.3 -3.9 -5.3 -0.9 0 -1.3 -0.3 -1 -0.7 0.4 -0.3 0.2 -1.2 -0.4 -2 -0.9 -1 -0.5 -1.3 2 -1.3 2.8 0 3.1 0.3 3.1 3 0 2.5 0.4 3 2.5 3 2.2 0 2.5 0.4 2.5 3.5 0 3.7 -0.7 4.5 -1.6 2z"/>
  <path d="M20.9 129.3 c-0.1 -1 -0.1 -2.2 0 -2.6 0.1 -0.4 -0.6 -1 -1.4 -1.3 -1.9 -0.8 -2 -3.4 0 -3.4 0.9 0 1.2 -0.6 0.9 -1.5 -0.4 -1 0 -1.5 1.5 -1.5 1.9 0 2.1 0.6 2.1 6 0 4.7 -0.3 6 -1.5 6 -0.8 0 -1.6 -0.8 -1.6 -1.7z"/>
  <path d="M586.2 117.4 c-1.3 -0.6 -3 -2.1 -3.8 -3.3 -1.5 -2 -1.4 -2.1 2.1 -2.1 3.7 0 4.9 1.3 4.3 4.7 -0.3 1.6 -0.6 1.7 -2.6 0.7z"/>
  <path d="M21 111.5 c0 -0.8 -0.7 -1.5 -1.5 -1.5 -1.2 0 -1.5 -1.8 -1.5 -10 0 -8.2 0.3 -10 1.5 -10 0.8 0 1.5 -0.4 1.5 -1 0 -0.5 -0.7 -1 -1.6 -1 -1.3 0 -1.3 -0.2 -0.2 -1.5 0.7 -0.8 1.8 -2.1 2.5 -2.9 0.7 -0.8 2.3 -2.2 3.5 -3 1.9 -1.4 2.1 -1.8 0.8 -2.6 -1.3 -0.8 -1.2 -1 0.1 -1.5 0.9 -0.3 2 -0.5 2.5 -0.3 0.5 0.2 2 -0.5 3.4 -1.5 1.8 -1.3 2.2 -2 1.2 -2.6 -1.6 -1 2.1 -4.6 4.1 -3.8 0.7 0.3 2.4 -0.4 3.8 -1.4 1.9 -1.5 2.1 -2.1 1 -2.8 -1.7 -1.1 -0.4 -1.9 3.2 -1.9 2.4 0 2.8 0.4 2.5 2.7 -0.2 2.1 -0.9 2.7 -3.5 2.9 -2.7 0.3 -3.3 0.8 -3.3 2.6 0 3 -3 5.6 -6.3 5.6 -2 0 -2.7 0.5 -2.7 2 0 1.6 0.7 2 3.5 2 2.9 0 3.5 0.4 3.5 2.1 0 1.8 -0.5 2 -4.7 1.8 -4 -0.2 -4.8 0 -4.7 1.4 0.1 0.9 -0.2 1.7 -0.7 1.7 -0.5 0 -0.9 -0.7 -0.9 -1.5 0 -0.8 -0.9 -1.5 -2 -1.5 -1.9 0 -2 0.7 -2 14.5 0 12.2 -0.2 14.5 -1.5 14.5 -0.8 0 -1.5 -0.7 -1.5 -1.5z"/>
  <path d="M254.1 108.1 c-0.9 -0.6 -1.1 -1.6 -0.7 -2.7 0.7 -1.8 0.8 -1.8 1.7 -0.1 0.6 0.9 1.7 1.7 2.4 1.7 0.8 0 1.5 0.5 1.5 1 0 1.2 -3 1.3 -4.9 0.1z"/>
  <path d="M34.1 106.8 c0.4 -3.4 -0.2 -5.8 -1.6 -5.8 -0.8 0 -1.5 -0.9 -1.5 -2 0 -1.1 0.7 -2 1.5 -2 0.8 0 1.5 -0.7 1.5 -1.5 0 -0.8 0.6 -1.5 1.4 -1.5 0.9 0 1.5 1.8 2 5.3 0.9 8 0.8 8.7 -1.4 8.7 -1.2 0 -2 -0.6 -1.9 -1.2z"/>
  <path d="M247 102.6 c0 -2.5 0.4 -3.6 1.5 -3.6 0.8 0 1.6 0.7 1.6 1.5 0.1 0.8 0.2 2.3 0.3 3.2 0 1 -0.7 1.9 -1.6 2.1 -1.5 0.3 -1.8 -0.4 -1.8 -3.2z"/>
  <path d="M28 99 c0 -2.7 0.5 -5 1 -5 0.6 0 1 2.3 1 5 0 2.8 -0.4 5 -1 5 -0.5 0 -1 -2.2 -1 -5z"/>
  <path d="M536.8 91.9 c-3.1 -1.7 -2 -2.9 2.7 -2.9 3.8 0 4.5 0.3 4.5 2 0 1.5 -0.7 2 -2.7 2 -1.6 0 -3.6 -0.5 -4.5 -1.1z"/>
  <path d="M37 90.5 c0 -0.8 0.6 -1.5 1.4 -1.5 0.8 0 1.7 -0.6 1.9 -1.2 0.4 -1 0.6 -1 0.6 0 0.1 0.6 0.8 1.2 1.6 1.2 0.8 0 1.5 0.7 1.5 1.5 0 1 -1.1 1.5 -3.5 1.5 -2.4 0 -3.5 -0.5 -3.5 -1.5z"/>
  <path d="M51 88.5 c0 -0.8 -0.8 -1.5 -1.7 -1.5 -2.4 0 -0.4 -1.7 2.7 -2.3 1.4 -0.2 0.4 -0.5 -2.3 -0.6 -6.4 -0.1 -5.2 -2.1 1.4 -2.1 l4.9 0 0 4 c0 3.6 -0.2 4 -2.5 4 -1.6 0 -2.5 -0.6 -2.5 -1.5z"/>
  <path d="M187 87.8 c0 -1.4 0.8 -1.8 3.5 -1.8 2.4 0 3.5 0.5 3.5 1.5 0 0.8 -0.6 1.5 -1.2 1.6 -0.7 0 -2.3 0.2 -3.5 0.3 -1.7 0.2 -2.3 -0.3 -2.3 -1.6z"/>
  <path d="M626 87.6 c0 -2.8 2.5 -3 5.2 -0.3 2.5 2.4 2.3 2.7 -1.7 2.7 -3 0 -3.5 -0.3 -3.5 -2.4z"/>
  <path d="M616.3 84.6 c-3 -1.4 -3.2 -5.5 -0.3 -5.3 1.1 0.1 2 0.5 2 1 0 0.4 0.6 0.7 1.3 0.5 1.1 -0.3 5.7 3.5 5.7 4.7 0 0.9 -6.5 0.3 -8.7 -0.9z"/>
  <path d="M601.3 76 c-0.5 -2 -1.4 -2 -117.9 -2 -103.7 0 -117.4 -0.2 -117.4 -1.5 0 -0.8 0.7 -1.5 1.5 -1.5 0.8 0 1.5 -0.4 1.5 -1 0 -0.5 2 -1 4.5 -1 2.5 0 4.5 0.5 4.5 1 0 0.6 0.9 1 2 1 1.1 0 2 -0.4 2 -1 0 -0.5 1.6 -1 3.5 -1 1.9 0 3.5 0.5 3.5 1 0 1.4 2.7 1.2 3.4 -0.2 0.5 -1 0.7 -1 1.2 0 0.7 1.4 3.4 1.6 3.4 0.2 0 -0.5 0.9 -1 2 -1 1.1 0 2 0.5 2 1 0 0.6 0.9 1 2 1 1.1 0 2 -0.4 2 -1 0 -0.5 1.6 -1 3.5 -1 1.9 0 3.5 0.5 3.5 1 0 1.5 2.9 1.2 4.5 -0.4 1.7 -1.7 27.7 -1.5 28.3 0.3 0.5 1.5 4.9 1.4 5.5 -0.1 0.5 -1.7 29.5 -1.9 31.1 -0.2 0.9 0.8 1.5 0.7 2.4 -0.2 1.8 -2 112.8 -1.9 113.9 0 1.1 1.8 5.1 3.8 6.3 3.1 0.6 -0.3 1 -0.1 1 0.5 0 0.6 0.3 0.9 0.8 0.7 0.4 -0.3 1.5 0.6 2.5 1.9 l1.8 2.4 -4.1 0 c-3.3 0 -4.3 -0.4 -4.7 -2z"/>
  <path d="M281 72.5 c0 -0.8 0.6 -1.5 1.4 -1.5 0.8 0 1.7 -0.6 1.9 -1.2 0.4 -1 0.6 -1 0.6 0 0.1 0.6 0.8 1.2 1.6 1.2 0.8 0 1.5 0.7 1.5 1.5 0 1 -1.1 1.5 -3.5 1.5 -2.4 0 -3.5 -0.5 -3.5 -1.5z"/>
  <path d="M299 72.5 c0 -0.8 0.6 -1.5 1.4 -1.5 0.8 0 1.7 -0.6 2 -1.2 0.5 -1 0.7 -1 1.2 0 0.3 0.6 1.2 1.2 2 1.2 0.8 0 1.4 0.7 1.4 1.5 0 1.1 -1.1 1.5 -4 1.5 -2.9 0 -4 -0.4 -4 -1.5z"/>
  <path d="M336 72.5 c0 -0.8 0.6 -1.5 1.4 -1.5 0.8 0 1.7 -0.6 2 -1.2 0.5 -1 0.7 -1 1.2 0 0.3 0.6 1.2 1.2 2 1.2 0.8 0 1.4 0.7 1.4 1.5 0 1.1 -1.1 1.5 -4 1.5 -2.9 0 -4 -0.4 -4 -1.5z"/>
  <path d="M349 72.5 c0 -0.8 0.6 -1.5 1.4 -1.5 0.8 0 1.7 -0.6 1.9 -1.2 0.4 -1 0.6 -1 0.6 0 0.1 0.6 1 1.2 2 1.2 1.1 0 2.2 -0.6 2.5 -1.2 0.5 -1 0.7 -1 1.2 0 0.3 0.6 1.2 1.2 2 1.2 0.8 0 1.4 0.7 1.4 1.5 0 1.2 -1.4 1.5 -6.5 1.5 -5.1 0 -6.5 -0.3 -6.5 -1.5z"/>
  <path d="M202.3 63.5 c-0.7 -0.8 -1.3 -1.9 -1.3 -2.5 0 -0.5 -0.9 -1 -2 -1 -1.4 0 -2 -0.7 -2 -2.3 0 -1.6 0.6 -2.3 2 -2.3 1.1 0 2 0.6 2 1.3 0 1.2 1.3 1.7 3.3 1.4 0.4 0 0.7 0.4 0.7 1 0 1.4 2.5 3.9 3.9 3.9 0.6 0 1.1 0.5 1.1 1 0 1.5 -6.3 1.1 -7.7 -0.5z"/>
  <path d="M137 38.1 c0 -2.7 6.9 -4.5 7.8 -2 0.6 1.5 3.2 1 3.2 -0.6 0 -1.9 2.4 -1.9 4.4 0 3.1 3.2 0.9 4.5 -7.5 4.5 -7.1 0 -7.9 -0.2 -7.9 -1.9z"/>
  <path d="M158.8 39.3 c-2.9 -0.4 -4 -3.3 -1.3 -3.3 0.8 0 1.5 -0.4 1.5 -1 0 -1.4 1.6 -1.2 3.2 0.3 1.5 1.4 2.3 1.4 5.6 0.3 1.4 -0.5 2.8 -0.3 3.7 0.4 1.2 1 1.5 1 1.5 0.1 0 -0.8 0.5 -0.7 1.5 0.3 2.9 2.9 1.7 3.6 -5.7 3.5 -4 -0.1 -8.5 -0.4 -10 -0.6z"/>
 </g>
 <g fill="#2c0000">
  <path d="M244 140 c0 -0.5 0.9 -1 2.1 -1 1.1 0 1.7 0.5 1.4 1 -0.3 0.6 -1.3 1 -2.1 1 -0.8 0 -1.4 -0.4 -1.4 -1z"/>
  <path d="M252.4 139.6 c-0.7 -2 0.2 -4.6 1.6 -4.6 0.5 0 1 0.9 1 2 0 1.1 0 2.3 0.1 2.7 0.1 1.5 -2.1 1.4 -2.7 -0.1z"/>
 </g>
 <g fill="#191919">
  <path d="M184.8 316.3 c-2.9 -0.3 -3.8 -0.9 -3.8 -2.2 0 -1 0.9 -2.1 2 -2.4 1.1 -0.3 2 -0.1 2 0.5 0 0.6 1.7 0.8 4 0.6 2.2 -0.2 4 0 4 0.4 0 0.5 0.7 0.8 1.5 0.8 0.8 0 1.5 0.7 1.5 1.5 0 1.5 -2.4 1.7 -11.2 0.8z"/>
  <path d="M516 315.5 c0 -0.8 0.6 -1.5 1.4 -1.5 0.8 0 1.6 -0.5 1.8 -1.1 0.6 -1.9 5.8 0.1 5.8 2.2 0 1.6 -0.8 1.9 -4.5 1.9 -3.3 0 -4.5 -0.4 -4.5 -1.5z"/>
  <path d="M530 313.5 c0 -0.8 0.6 -1.5 1.4 -1.5 0.8 0 1.6 -0.5 1.8 -1.1 0.6 -1.9 5.8 0.1 5.8 2.2 0 1.6 -0.8 1.9 -4.5 1.9 -3.3 0 -4.5 -0.4 -4.5 -1.5z"/>
  <path d="M162.8 311.3 c-2.6 -0.7 -2.4 -4.9 0.2 -4.9 1.1 0 2 0.4 2 0.9 0 0.5 0.7 0.7 1.5 0.3 0.8 -0.3 1.5 -0.1 1.5 0.4 0 0.6 0.7 1 1.5 1 0.8 0 1.5 0.7 1.5 1.5 0 1.5 -4.1 1.9 -8.2 0.8z"/>
  <path d="M145 38.5 c0 -0.8 0.7 -1.5 1.5 -1.5 0.8 0 1.5 -0.6 1.5 -1.2 0 -0.9 0.4 -0.8 1 0.2 0.6 1 1 1.1 1 0.3 0 -1.6 2.7 -1.7 3.2 -0.2 0.3 0.8 1.6 0.8 4.8 -0.1 3.2 -0.9 4.5 -0.9 4.8 -0.1 0.2 0.6 1 1.1 1.8 1.1 0.8 0 1.4 0.7 1.4 1.5 0 1.2 -1.8 1.5 -10.5 1.5 -8.7 0 -10.5 -0.3 -10.5 -1.5z"/>
 </g>
 <g fill="#001d2f">
 </g>
 <g fill="#4f0100">
  <path d="M252.7 139 c-0.6 -2.4 0.2 -6 1.4 -6 0.5 0 0.9 1.8 0.9 4 0 4.2 -1.4 5.4 -2.3 2z"/>
 </g>
 <g fill="#780100">
 </g>
 <g fill="#00314f">
 </g>
 <g fill="#323231">
  <path d="M469.5 306.6 c-1.6 -1.3 -2.7 -2.8 -2.2 -3.2 0.4 -0.4 1.3 -0.2 1.9 0.4 0.8 0.8 1.5 0.9 2.5 0.1 1 -0.9 1.3 -0.5 1.3 2 0 1.7 -0.1 3.1 -0.2 3.1 -0.2 0 -1.6 -1.1 -3.3 -2.4z"/>
  <path d="M477.3 305.5 c-0.8 -2.3 0.4 -3 2.2 -1.2 1.9 2 1.9 2.7 0 2.7 -0.9 0 -1.8 -0.7 -2.2 -1.5z"/>
  <path d="M482 305.6 c0 -0.8 0.5 -1.8 1 -2.1 0.8 -0.5 0.7 -1.1 -0.1 -2.1 -1.5 -1.8 -0.7 -2.7 1.5 -1.8 2.2 0.9 2 4.7 -0.4 6.2 -1.7 1 -2 1 -2 -0.2z"/>
  <path d="M496 305.8 c0 -0.9 0.5 -2 1 -2.3 0.6 -0.3 1 -1.5 1 -2.6 0 -2.4 3.5 -2.6 3.7 -0.1 0.1 0.9 0.4 2.8 0.9 4.2 0.7 2.4 0.6 2.4 -1.2 0.8 -1.9 -1.7 -2.1 -1.7 -3.7 -0.1 -1.6 1.6 -1.7 1.6 -1.7 0.1z"/>
  <path d="M512.1 303.9 c-1.3 -3.9 -1.4 -4.9 -0.2 -4.9 0.5 0 1.3 1 1.7 2.2 l0.7 2.3 1 -2.5 c1.4 -3.5 2.1 -0.3 0.8 3.3 -1.4 3.6 -2.7 3.4 -4 -0.4z"/>
  <path d="M519 306.4 c0 -0.7 2.7 -3.4 3.4 -3.4 0.3 0 0.6 0.9 0.6 2 0 1.3 -0.7 2 -2 2 -1.1 0 -2 -0.3 -2 -0.6z"/>
  <path d="M527.6 306.3 c-1.1 -1.1 -0.6 -2.3 0.9 -2.3 0.8 0 1.5 0.4 1.5 0.9 0 1.3 -1.6 2.2 -2.4 1.4z"/>
  <path d="M489.5 303 c-0.4 -0.6 0.7 -1 2.5 -1 1.8 0 2.9 0.4 2.5 1 -0.3 0.6 -1.5 1 -2.5 1 -1 0 -2.2 -0.4 -2.5 -1z"/>
  <path d="M467.2 299.8 c0.2 -1.8 1 -2.3 3.3 -2.3 2.3 0 3.1 0.5 3.3 2.3 0.2 1.2 -0.1 2.2 -0.7 2.2 -0.6 0 -1.1 -0.6 -1.1 -1.4 0 -2.4 -2.1 -3 -2.7 -0.7 -0.7 2.8 -2.5 2.7 -2.1 -0.1z"/>
  <path d="M533 299.2 c0 -1.9 2.3 -3.1 4.2 -2.1 2.7 1.5 2.2 2.9 -1.2 2.9 -1.6 0 -3 -0.4 -3 -0.8z"/>
  <path d="M241.8 107.9 c-2.2 -1.2 -2.4 -4.9 -0.3 -4.9 0.8 0 1.5 0.7 1.5 1.5 0 0.8 0.9 1.5 2 1.5 1.6 0 2 -0.7 2 -3.2 0 -4.1 1 -7.8 2 -7.8 1.4 0 1.6 10.2 0.2 12.1 -1.4 2.1 -4.7 2.4 -7.4 0.8z"/>
 </g>
 <g fill="#a50302">
  <path d="M253 139 c0 -1.1 0.5 -2 1 -2 0.6 0 1 0.9 1 2 0 1.1 -0.4 2 -1 2 -0.5 0 -1 -0.9 -1 -2z"/>
  <path d="M253 128.5 c0 -0.9 -0.9 -1.5 -2.5 -1.5 -1.4 0 -2.5 -0.4 -2.5 -1 0 -0.6 2.7 -1 6 -1 3.3 0 6 0.4 6 1 0 0.6 -1.1 1 -2.5 1 -1.6 0 -2.5 0.6 -2.5 1.5 0 0.8 -0.4 1.5 -1 1.5 -0.5 0 -1 -0.7 -1 -1.5z"/>
  <path d="M261 127.5 c0 -1.6 0.6 -2.5 1.5 -2.5 0.9 0 1.5 0.9 1.5 2.5 0 1.6 -0.6 2.5 -1.5 2.5 -0.9 0 -1.5 -0.9 -1.5 -2.5z"/>
 </g>
 <g fill="#00456e">
 </g>
 <g fill="#444444">
  <path d="M469.8 306.7 c-2.7 -2.2 -3.8 -5.7 -1.8 -5.7 0.6 0 1 0.6 1 1.4 0 2.4 2.1 3 2.7 0.7 0.9 -3.5 2.2 -2.3 2 1.9 -0.1 2.2 -0.4 4 -0.7 4 -0.3 -0.1 -1.7 -1.1 -3.2 -2.3z"/>
  <path d="M482.4 305.5 c0.5 -1.1 1 -2.8 1.3 -3.7 0.5 -1.7 3.2 -3.3 4.1 -2.3 0.3 0.2 -0.1 1.1 -0.7 1.9 -0.8 1 -0.9 1.6 -0.1 2.1 0.5 0.3 1 1.3 1 2.2 0 1.3 -0.3 1.3 -1.5 0.3 -1.2 -1 -1.8 -1 -3.2 0.1 -1.5 1.2 -1.6 1.2 -0.9 -0.6z"/>
  <path d="M496 306.8 c0 -0.4 0.5 -1.8 1.1 -3.1 0.8 -1.8 0.8 -3 0 -4.6 -1.2 -2.1 0.2 -3.1 1.4 -1.1 0.5 0.8 1.1 0.7 2.1 -0.1 1.9 -1.6 3 -0.3 1.4 1.6 -1.1 1.3 -1.1 2 0 4 0.7 1.4 1.1 2.8 0.7 3.1 -0.3 0.3 -1.1 -0.4 -1.7 -1.6 l-1.1 -2.1 -1.9 2.3 c-1.1 1.3 -1.9 2 -2 1.6z"/>
  <path d="M513.2 305.8 c-1.5 -1.9 -2.6 -6.8 -1.4 -6.8 0.5 0 1.3 1 1.6 2.3 l0.7 2.2 0.9 -2.2 c1.5 -3.7 3.1 -2.8 1.8 1 -1.4 4.2 -2.3 5.1 -3.6 3.5z"/>
  <path d="M519.7 306.4 c-0.3 -0.4 0 -1.3 0.8 -2.1 1.3 -1.3 1.7 -1.3 3 0 1.6 1.6 1 2.7 -1.5 2.7 -0.9 0 -1.9 -0.3 -2.3 -0.6z"/>
  <path d="M527.6 306.2 c-0.3 -0.6 -0.1 -1.4 0.5 -1.7 1.5 -1 2.5 0.3 1.2 1.6 -0.7 0.7 -1.3 0.7 -1.7 0.1z"/>
  <path d="M231 107.1 c0 -1.2 0.6 -2.1 1.6 -2.1 0.9 0 1.4 0.7 1.2 1.7 -0.5 2.5 -2.8 2.8 -2.8 0.4z"/>
  <path d="M244 108.2 c0 -1.2 4.9 -3.7 5.6 -2.9 1.1 1 -1.7 3.7 -3.7 3.7 -1.1 0 -1.9 -0.4 -1.9 -0.8z"/>
 </g>
 <g fill="#da0505">
  <path d="M253 133 c0 -5.4 0.4 -7.2 1.5 -7.7 0.9 -0.3 1.9 -0.2 2.3 0.2 0.4 0.4 0.1 1 -0.5 1.2 -0.9 0.3 -1.3 2.7 -1.3 6.9 0 3.6 -0.4 6.4 -1 6.4 -0.6 0 -1 -3 -1 -7z"/>
  <path d="M225.9 130.5 c2 -7 4.4 -7.4 6 -1.1 1.6 6.5 1.5 6.6 -3.3 6.6 l-4.3 0 1.6 -5.5z m4.5 1.8 c-1.1 -4.6 -1.8 -4.6 -2.9 0 -0.6 2.3 -0.4 2.7 1.4 2.7 1.8 0 2 -0.4 1.5 -2.7z"/>
  <path d="M212 130 l0 -5 4.5 0 c2.5 0 4.5 0.5 4.5 1 0 0.6 -1.4 1 -3 1 -1.9 0 -3.3 0.6 -3.7 1.6 -0.8 2.1 1.6 3.6 4.5 2.9 1.2 -0.3 2.2 -0.1 2.2 0.5 0 0.5 -1.3 1 -2.9 1 -1.7 0 -3.3 0.5 -3.6 1 -1.4 2.3 -2.5 0.7 -2.5 -4z"/>
  <path d="M205.8 131.8 c0.7 -0.7 1.2 -2.5 1.2 -4 0 -1.5 0.5 -2.8 1 -2.8 0.6 0 1 1.8 1 4 0 3.5 -0.3 4 -2.2 4 -1.7 0 -1.9 -0.3 -1 -1.2z"/>
 </g>
 <g fill="#005d91">
 </g>
 <g fill="#525252">
  <path d="M471.7 307.9 c-0.9 -0.6 -1.7 -1.4 -1.7 -1.9 0 -1.7 2.7 -1.1 3.4 0.6 0.8 2.2 0.5 2.5 -1.7 1.3z"/>
  <path d="M478.3 306.3 c-0.7 -0.3 -1.3 -1.1 -1.3 -1.9 0 -1.8 0.8 -1.8 2.6 0 1.5 1.6 0.7 2.6 -1.3 1.9z"/>
  <path d="M485.3 305.3 c-1.9 -0.7 -1.6 -4.3 0.3 -4.3 0.8 0 1.3 0.4 0.9 0.9 -0.3 0.5 -0.1 1.2 0.5 1.6 2.3 1.5 1 2.9 -1.7 1.8z"/>
  <path d="M513 303.9 c0 -1.1 0.4 -1.8 0.9 -1.5 0.5 0.3 1.2 -0.4 1.6 -1.7 0.6 -1.8 0.8 -1.9 1.2 -0.5 0.5 1.9 -1.3 5.8 -2.7 5.8 -0.6 0 -1 -0.9 -1 -2.1z"/>
  <path d="M497.5 301.1 c0 -2.9 0.3 -3.7 1.1 -3 0.8 0.7 1.4 0.6 1.9 -0.1 1.2 -2 2.6 -1.1 1.5 1 -0.6 1.2 -0.8 3.1 -0.4 4.3 0.6 1.9 0.5 2 -1 0.8 -1 -0.9 -1.6 -1 -1.6 -0.2 0 0.6 -0.3 1.1 -0.8 1.1 -0.4 0 -0.7 -1.8 -0.7 -3.9z"/>
  <path d="M205 107.1 c0 -1.2 0.6 -2.1 1.6 -2.1 0.9 0 1.4 0.7 1.2 1.7 -0.5 2.5 -2.8 2.8 -2.8 0.4z"/>
  <path d="M231.6 108.3 c-1.2 -1.2 -0.6 -3.3 0.9 -3.3 0.8 0 1.5 0.6 1.5 1.4 0 1.7 -1.4 2.8 -2.4 1.9z"/>
  <path d="M168 91.1 c0 -3 0.1 -3.1 4.5 -3.1 3.7 0 4.5 0.3 4.5 1.9 0 1.2 -1 2.1 -2.7 2.5 -1.6 0.4 -3.6 0.9 -4.5 1.2 -1.4 0.4 -1.8 -0.1 -1.8 -2.5z"/>
 </g>
 <g fill="#f90102">
  <path d="M199 133 c0 -7.8 1.6 -11.2 2.2 -4.7 0.2 2.7 0.7 3.2 2.8 3.2 2 0 2.6 -0.6 3 -3 l0.6 -3 0.7 3.4 c1 4.8 0.9 12.1 -0.2 12.1 -0.6 0 -1.1 -1.7 -1.3 -3.7 -0.3 -3.3 -0.6 -3.8 -2.8 -3.8 -2.2 0 -2.5 0.5 -2.8 3.8 -0.6 6.9 -2.2 3.8 -2.2 -4.3z"/>
  <path d="M212 136.2 l0 -4.8 4.5 0.1 c5.2 0 6.1 1.2 1.3 1.7 -2.8 0.2 -3.4 0.8 -3.6 3.1 -0.3 2.5 -0.1 2.7 3.2 2.7 2 0 3.6 0.5 3.6 1 0 0.6 -2 1 -4.5 1 l-4.5 0 0 -4.8z"/>
  <path d="M223.6 138.3 c0.4 -1.6 1.3 -3.9 2 -5.3 1.3 -2.5 1.3 -2.5 1.4 -0.2 0 1.6 0.6 2.2 2.1 2.2 1.9 0 2.1 -0.4 1.5 -3.2 -0.4 -1.8 -1.1 -3.4 -1.6 -3.6 -0.6 -0.2 -1 -1 -1 -1.9 0 -0.8 0.5 -1.3 1.1 -1.1 1.5 0.5 5.9 14.7 4.8 15.4 -0.5 0.3 -1.3 -0.6 -1.8 -1.9 -0.8 -1.9 -1.5 -2.3 -3.4 -2 -1.4 0.3 -2.7 1.4 -3 2.4 -0.8 3.1 -2.8 2.3 -2.1 -0.8z"/>
  <path d="M237.7 140.3 c-0.4 -0.3 -0.7 -3.9 -0.7 -8 0 -5.8 0.3 -7.3 1.5 -7.3 1.2 0 1.5 1.4 1.5 7 l0 7 3.5 0 c1.9 0 3.5 0.5 3.5 1 0 1.1 -8.3 1.4 -9.3 0.3z"/>
  <path d="M261.7 140.3 c-1 -0.9 -0.8 -12.6 0.2 -14.1 0.7 -1.1 1 -1 1.5 0.3 0.3 0.9 0.6 2.5 0.6 3.6 0 1.4 0.7 1.9 2.5 1.9 2.2 0 2.5 -0.4 2.5 -3.5 0 -1.9 0.5 -3.5 1 -3.5 0.6 0 1 3 1 7 0 3.9 0 7.3 0.1 7.7 0 0.4 -0.4 0.9 -1 1.1 -0.7 0.2 -1.1 -1.2 -1.1 -3.7 0 -3.7 -0.2 -4.1 -2.5 -4.1 -2.2 0 -2.5 0.4 -2.5 4 0 3.8 -0.8 4.9 -2.3 3.3z"/>
 </g>
 <g fill="#0dff05">
  <path d="M34 317.4 c-1.7 -4.4 -1.2 -8 1.6 -10.8 2.3 -2.3 3.5 -2.6 9 -2.6 l6.4 0 0 7 0 7 -4.5 0 c-2.5 0 -4.5 0.5 -4.5 1 0 0.6 -1.6 1 -3.5 1 -2.9 0 -3.7 -0.5 -4.5 -2.6z"/>
 </g>
 <g fill="#5e5e5e">
  <path d="M197 316 c0 -2 0.7 -2 159.5 -2 158.8 0 159.5 0 159.5 2 0 2 -0.7 2 -159.5 2 -158.8 0 -159.5 0 -159.5 -2z"/>
  <path d="M181.5 316.4 c-1.1 -0.3 -3.6 -0.9 -5.5 -1.4 -1.9 -0.5 -5.2 -1.2 -7.2 -1.5 -3.3 -0.5 -3.8 -1 -3.8 -3.2 0 -1.6 0.5 -2.3 1.3 -2 1.6 0.6 19.3 4.5 24 5.2 2.3 0.4 3.7 1.1 3.7 2 0 1.1 -1.3 1.5 -5.2 1.4 -2.9 -0.1 -6.2 -0.3 -7.3 -0.5z"/>
  <path d="M521.2 315.3 c0.2 -1.3 2.2 -2 8.3 -2.9 4.4 -0.7 9.5 -1.5 11.3 -1.9 2.8 -0.7 3.2 -0.5 3.2 1.3 0 1.7 -1.2 2.2 -8.7 3.6 -11.6 2.1 -14.5 2.1 -14.1 -0.1z"/>
  <path d="M551.2 308 c0.2 -0.6 4.8 -3.2 10.3 -5.9 9.5 -4.6 10 -4.8 10.3 -2.8 0.4 2.4 -2 4.6 -6 5.4 -1.6 0.3 -2.8 0.9 -2.8 1.3 0 1.1 -5.8 3 -9.2 3 -1.6 0 -2.8 -0.5 -2.6 -1z"/>
  <path d="M469.8 306.6 c-2.4 -1.8 -2.3 -2.3 0.6 -2.3 1.5 0 2.6 0.6 2.9 1.8 0.6 2.2 -1 2.4 -3.5 0.5z"/>
  <path d="M534.1 305.6 c-0.7 -0.8 -1.1 -3 -0.9 -4.8 0.2 -2.8 0.7 -3.3 2.8 -3.3 2.1 0 2.6 0.5 2.8 3.3 0.3 3.1 -1.1 6.2 -2.8 6.2 -0.4 0 -1.3 -0.6 -1.9 -1.4z"/>
  <path d="M483 304.1 c0.5 -0.9 0.4 -2.3 0 -3.2 -0.7 -1.3 -0.3 -1.6 2 -1.6 2.3 0 2.7 0.3 2 1.6 -0.5 0.9 -0.4 2.3 0 3.2 0.7 1.3 0.3 1.6 -2 1.6 -2.3 0 -2.7 -0.3 -2 -1.6z"/>
  <path d="M498.8 301.5 c-3.4 -5.6 -1.8 -6 1.7 -0.5 2.7 4.2 2.9 5 1.7 5 -0.4 0 -1.9 -2 -3.4 -4.5z"/>
  <path d="M145 303 c-0.8 -1.1 -2.5 -2 -3.7 -2 -1.3 0 -2.3 -0.4 -2.3 -1 0 -0.5 -0.7 -1 -1.6 -1 -1.8 0 -4.4 -2.3 -4.4 -3.9 0 -0.6 -1.1 -1.1 -2.5 -1.1 -1.8 0 -2.5 -0.5 -2.5 -2 0 -1.2 -0.7 -2 -1.6 -2 -0.9 0 -3.4 -2 -5.6 -4.5 -2.2 -2.5 -4.6 -4.5 -5.3 -4.5 -1.5 0 -2.5 -2.2 -2.5 -5.6 0 -1.9 -0.5 -2.4 -2.5 -2.4 -1.8 0 -2.5 -0.5 -2.5 -2 0 -1.1 -0.5 -2 -1.1 -2 -2.2 0 -3.9 -3 -4.5 -8.4 -0.4 -3.1 -0.3 -5.6 0.2 -5.6 0.5 0.1 3.4 3.9 6.4 8.6 7.6 11.8 23.6 27.1 35.8 34.3 5.1 2.9 9.2 5.7 9.2 6.2 0 0.5 -1.7 0.9 -3.8 0.9 -2.6 0 -4.2 -0.6 -5.2 -2z"/>
  <path d="M472 299.8 c0 -2.5 0.3 -2.9 1 -1.8 1.3 2 1.3 5 0 5 -0.5 0 -1 -1.5 -1 -3.2z"/>
  <path d="M477 301.6 c0 -0.8 -0.6 -1.7 -1.2 -1.9 -0.7 -0.3 -0.3 -0.6 1 -0.6 1.6 -0.1 2.2 0.5 2.2 1.9 0 1.1 -0.4 2 -1 2 -0.5 0 -1 -0.6 -1 -1.4z"/>
  <path d="M520.2 300.4 c-1.5 -1.6 -0.8 -3.4 1.4 -3.4 0.8 0 1.4 1 1.4 2.5 0 2.8 -0.9 3.1 -2.8 0.9z"/>
  <path d="M580 290.9 c1.9 -1.7 4.8 -4 6.3 -5.1 l2.8 -2 -0.3 3.3 c-0.2 2.6 -0.8 3.5 -2.5 3.7 -1.3 0.2 -2.3 1 -2.3 1.8 0 1 -1.1 1.4 -3.7 1.4 l-3.8 -0.1 3.5 -3z"/>
  <path d="M91 240 c0 -1.6 -0.5 -3 -1.1 -3 -0.6 0 -1 -1.8 -0.9 -4.2 0.3 -7.2 0.1 -8.8 -1.4 -8.8 -2.6 0 -3.6 -14.4 -1 -15.4 2.8 -1.1 3.3 -0.7 3.9 3.2 2.1 13.3 3 17.5 5.1 23.6 1.3 3.8 2.4 7.1 2.4 7.3 0 0.2 -1.6 0.3 -3.5 0.3 -3.2 0 -3.5 -0.2 -3.5 -3z"/>
  <path d="M620 232.9 c0 -3.2 2.4 -9.9 3.6 -9.9 1.5 0 1.9 4.6 0.8 8.8 -0.6 2.2 -4.4 3.2 -4.4 1.1z"/>
  <path d="M623.7 197.3 c-0.5 -14.3 -2 -22.5 -6 -34 l-1.5 -4.3 2.8 0 c2.7 0 2.8 0.3 3.5 6.3 0.4 3.4 1.2 6.5 1.7 6.8 1.7 1.1 2.8 8.8 3.5 24.7 0.6 14.8 0.5 15.2 -1.4 15.2 -1.9 0 -2 -0.8 -2.6 -14.7z"/>
  <path d="M87 193.5 c0 -1.4 -0.4 -2.5 -1 -2.5 -1.1 0 -1.3 -3.7 -0.4 -10.4 0.4 -2.5 1.2 -4.6 1.8 -4.6 0.7 0 1 -1.4 0.8 -4 l-0.4 -4 3.7 0 c3.1 0 3.5 0.3 3 1.9 -1.2 4 -3.5 15.8 -3.5 18.6 0 4.5 -1.1 7.5 -2.6 7.5 -0.8 0 -1.4 -1 -1.4 -2.5z"/>
  <path d="M26 167.5 c0 -1.4 -0.4 -2.5 -1 -2.5 -0.6 0 -1 -4.2 -1 -10.5 0 -6.3 0.4 -10.5 1 -10.5 0.6 0 1 -0.9 1 -2 0 -1.3 0.7 -2 2 -2 1.9 0 2 0.7 2 15 0 14.3 -0.1 15 -2 15 -1.5 0 -2 -0.7 -2 -2.5z"/>
  <path d="M51 152 c0 -4.3 0.3 -5 2 -5 1.7 0 2 0.7 2 5 0 4.3 -0.3 5 -2 5 -1.7 0 -2 -0.7 -2 -5z"/>
  <path d="M96.3 155.5 c-0.7 -0.8 -1.3 -2.8 -1.3 -4.5 0 -2.3 0.4 -3 2 -3 1.1 0 2 -0.4 2 -1 0 -0.5 1.1 -1 2.5 -1 3.1 0 3.1 -0.1 0 6 -2.7 5.3 -3.3 5.7 -5.2 3.5z"/>
  <path d="M604.2 137.5 l-4.2 -6.5 3 0 c2 0 3 0.5 3 1.5 0 0.8 0.6 1.5 1.4 1.5 0.7 0 1.6 1 2 2.3 0.8 3.1 0.7 7.7 -0.1 7.7 -0.5 0 -2.7 -3 -5.1 -6.5z"/>
  <path d="M104.6 140.8 c-1.1 -4.2 -0.7 -7.8 0.9 -7.8 0.9 0 1.5 -0.9 1.5 -2.5 0 -1.5 0.6 -2.5 1.4 -2.5 0.8 0 1.7 -1.1 2 -2.5 0.6 -2.2 1.2 -2.5 5.1 -2.5 2.5 0 4.5 0.4 4.5 0.8 0 0.5 -2.2 3.6 -4.9 7 -2.7 3.4 -5.8 7.5 -6.7 9.2 -2.2 3.6 -3 3.7 -3.8 0.8z"/>
  <path d="M592.5 122.9 c-20.1 -20.5 -50.5 -33.9 -77.2 -33.9 -5.6 0 -6.3 -0.2 -6.3 -2 0 -1.3 0.7 -2 2 -2 1.1 0 2 -0.4 2 -1 0 -0.5 2.5 -1 5.5 -1 3 0 5.5 0.4 5.5 0.8 0 0.4 1.6 0.6 3.6 0.4 2 -0.3 3.9 0 4.3 0.5 0.3 0.6 4.7 1.8 9.6 2.7 5.2 0.9 9.5 2.2 10.1 3.1 0.6 0.8 2 1.5 3 1.5 2.6 0 10.3 2.8 12 4.3 3.3 2.9 4.4 3.7 5.4 3.7 2.4 0 8 4.1 8 5.9 0 0.6 0.9 1.1 2 1.1 1.1 0 2 0.5 2 1 0 1.6 3.8 5 5.6 5 0.8 0 3.1 1.6 5 3.6 2.7 2.9 3.4 4.5 3.4 7.5 0 2.2 -0.1 3.9 -0.3 3.9 -0.1 0 -2.5 -2.3 -5.2 -5.1z"/>
  <path d="M125.6 117.3 c-0.3 -0.3 -0.6 -2.1 -0.6 -4 0 -3.4 0.3 -3.6 5.3 -4.7 2 -0.5 2.7 -1.2 2.7 -3.1 0 -1.5 0.6 -2.5 1.4 -2.5 0.8 0 1.6 -0.5 1.8 -1.1 0.2 -0.5 2.3 -1.3 4.7 -1.6 3 -0.4 4.5 -1.2 4.8 -2.3 0.5 -1.9 4.3 -4 7.2 -4 1.1 0 2.1 -0.7 2.5 -1.5 0.3 -1 1.9 -1.5 4.6 -1.5 2.2 0 4 -0.4 4 -1 0 -0.5 0.7 -1 1.5 -1 0.8 0 1.5 -0.4 1.5 -1 0 -0.5 1.8 -1 3.9 -1 2.2 0 4.1 -0.4 4.3 -0.9 0.2 -0.6 5.1 -1.5 11 -2.2 11.9 -1.4 15.8 -0.6 15.8 3.1 0 1.8 -0.6 2 -5.9 2 -3.3 0 -9.4 0.7 -13.5 1.5 -4.2 0.8 -8.3 1.2 -9.2 0.8 -0.8 -0.3 -2 0.1 -2.7 1 -0.7 0.8 -3 2 -5.2 2.7 -8.7 2.8 -32.8 16.5 -35 20 -0.9 1.5 -4.1 3 -4.9 2.3z"/>
  <path d="M205.6 108.3 c-1.2 -1.2 -0.6 -3.3 0.9 -3.3 0.8 0 1.5 0.6 1.5 1.4 0 1.7 -1.4 2.8 -2.4 1.9z"/>
  <path d="M241.6 107.4 c-0.9 -0.8 -1.6 -2 -1.6 -2.5 0 -1.5 2.2 -1 3.5 0.8 1.1 1.5 1.5 1.5 2.9 0.4 0.9 -0.7 1.6 -2 1.6 -2.7 0 -0.8 0.5 -1.4 1 -1.4 1.8 0 1.1 4.9 -0.9 6 -2.7 1.4 -4.7 1.3 -6.5 -0.6z"/>
  <path d="M188 96.1 c0 -3.6 8.2 -5.7 9.4 -2.5 0.9 2.3 0.1 2.8 -2.2 1.3 -1.8 -1.1 -2.4 -1 -4 0.4 -2.1 1.9 -3.2 2.2 -3.2 0.8z"/>
  <path d="M203.5 95.1 c-1.1 -0.5 -2.3 -0.7 -2.7 -0.4 -0.5 0.2 -0.8 -0.3 -0.8 -1.1 0 -1.2 1.1 -1.6 4.6 -1.6 3.8 0 4.5 0.3 4.2 1.7 -0.4 2 -2.4 2.5 -5.3 1.4z"/>
  <path d="M51 90.4 c0 -1.4 0.8 -3.3 1.7 -4.2 1.6 -1.6 1 -1.7 -8.8 -2.3 -5.7 -0.4 -10.5 -0.7 -10.6 -0.8 -0.2 0 -0.3 -1.2 -0.3 -2.6 l0 -2.5 11 0 c10.3 0 11 0.1 11 2 0 1.1 0.5 2 1 2 0.6 0 1 1.8 1 4 0 2.2 -0.4 4 -1 4 -0.5 0 -1 0.7 -1 1.5 0 0.8 -0.9 1.5 -2 1.5 -1.5 0 -2 -0.7 -2 -2.6z"/>
 </g>
 <g fill="#007abc">
 </g>
 <g fill="#686868">
  <path d="M52 328.6 c0 -0.9 1.8 -2 4.7 -2.8 l4.8 -1.4 -0.2 -12.8 -0.1 -12.9 -5.2 -4.2 -5.2 -4.3 0.2 -67.8 c0.3 -125.5 0.4 -134.7 1.8 -135.1 1.4 -0.5 1.6 -3.3 0.2 -3.3 -0.5 0 -1 -0.7 -1 -1.5 0 -1.2 -1.6 -1.4 -8 -1.4 -4.4 0 -8 0.4 -8 0.9 0 0.5 -1.4 1 -3.1 1.2 l-3 0.3 0 31.8 c0 27.1 -0.2 31.7 -1.4 31.7 -1.9 0 -2.1 8.6 -0.2 9.4 0.9 0.5 0.9 0.7 0 1.2 -1.8 0.8 -1.6 4.1 0.3 4.8 1.4 0.5 1.5 6.2 1 55.8 -0.3 30.4 -0.5 59.7 -0.5 65.1 l-0.1 9.7 -4.2 4.6 c-3.1 3.3 -4.4 4.1 -5 3.2 -0.5 -0.7 -0.6 -26.4 -0.3 -58.3 1.5 -157.7 1.5 -158.9 3 -159.8 1.5 -0.8 12.8 -10.6 38.9 -33.4 l15.1 -13.3 48 0.5 c26.4 0.2 48.8 0.4 49.8 0.5 0.9 0 1.7 0.6 1.7 1.3 0 0.6 2.4 2.8 5.2 4.7 2.9 1.9 9.7 6.9 15.1 11 5.5 4.1 10.6 8 11.5 8.5 0.9 0.6 3.8 2.7 6.5 4.8 l4.9 3.7 189.9 0 189.8 0 14.3 7.4 c25.1 12.9 27 14 27.6 15.4 0.3 0.8 0 1.7 -0.7 2.1 -0.9 0.6 -1 20.8 -0.2 88.7 0.6 48.3 1.1 99.7 1.1 114 l0 26.2 -44.2 0.6 c-24.4 0.3 -70.4 0.8 -102.2 0.9 -42.7 0.3 -58.1 0.7 -58.4 1.5 -0.5 1.7 -20.2 1.7 -20.2 0 0 -0.8 -16.8 -1 -68.2 -0.5 -37.6 0.4 -115.5 0.9 -173.3 1.2 -57.7 0.3 -108.9 0.8 -113.7 1.1 -7.3 0.4 -8.8 0.2 -8.8 -1z m473 -14.9 c13.1 -1.9 28 -6.7 39.5 -12.6 14 -7.2 30.6 -22.1 40.2 -36.2 15.1 -21.9 22.5 -53.3 18.9 -79.4 -0.3 -2.2 -0.6 -4.7 -0.7 -5.5 -0.1 -0.8 -1 -4.1 -2 -7.2 -1.1 -3.2 -1.9 -6.8 -1.9 -8.2 0 -1.3 -0.3 -2.6 -0.7 -2.8 -0.5 -0.2 -3.5 -5.7 -6.8 -12.3 -3.3 -6.6 -6.7 -12.7 -7.5 -13.5 -2.9 -3 -8.6 -10.5 -9.9 -13.2 -0.8 -1.5 -1.7 -2.5 -2.1 -2.3 -0.4 0.3 -1 -0.5 -1.4 -1.8 -0.5 -1.8 -0.8 -2 -1.6 -0.7 -0.8 1.3 -1 1.2 -1 -0.2 0 -1 -0.3 -1.7 -0.8 -1.5 -1.1 0.3 -6.2 -3.9 -6.2 -5.2 0 -0.6 -0.3 -1 -0.7 -1 -2.1 0.3 -3.3 -0.3 -3.3 -1.7 0 -0.8 -0.4 -1.2 -1 -0.9 -0.5 0.3 -1 -0.1 -1 -1 0 -1.1 -0.5 -1.5 -1.4 -1.2 -0.8 0.3 -1.7 -0.1 -2 -0.8 -0.3 -0.8 -1.2 -1.2 -2.1 -0.9 -0.8 0.4 -1.7 -0.1 -2.1 -1 -0.3 -0.9 -1 -1.3 -1.5 -1 -0.5 0.3 -0.9 0 -0.9 -0.6 0 -0.6 -0.4 -0.8 -1 -0.5 -0.5 0.3 -1 0 -1 -0.8 0 -1.8 -3 -3.1 -3.1 -1.4 0 0.9 -0.2 0.9 -0.6 -0.1 -0.2 -0.6 -0.9 -1 -1.4 -0.6 -0.5 0.3 -0.9 0 -0.9 -0.6 0 -0.6 -0.4 -0.8 -1 -0.5 -0.5 0.3 -1 0.1 -1 -0.5 0 -0.7 -0.8 -0.9 -1.9 -0.5 -1.2 0.4 -2.6 -0.1 -3.8 -1.3 -2.5 -2.6 -5.5 -3.5 -6.5 -2 -0.6 1 -0.8 1 -0.8 0.1 0 -0.7 -0.7 -1 -1.5 -0.7 -0.8 0.4 -1.5 0.1 -1.5 -0.5 0 -0.7 -0.9 -0.9 -2.5 -0.5 -1.4 0.3 -2.5 0.2 -2.5 -0.4 0 -0.5 -1.1 -0.7 -2.5 -0.4 -1.9 0.3 -2.5 0 -2.5 -1.4 0 -1.4 -0.3 -1.5 -1.2 -0.6 -1.8 1.8 -6.8 1.5 -6.8 -0.3 0 -1.8 -4.6 -2.1 -5.2 -0.2 -0.4 0.9 -33.1 1.3 -158.2 1.5 -139.4 0.2 -158 0 -159.9 -1.3 -2.8 -2 -5.4 -1.9 -6.6 0.2 -0.8 1.5 -1.3 1.5 -3.6 0.5 -3.3 -1.5 -3.5 -1.5 -3.5 0.4 0 1.6 -0.2 1.6 -4.7 -0.3 -0.7 -0.3 -1.3 0.1 -1.3 0.9 0 1.1 -1.1 1.4 -4 1.1 -2.2 -0.2 -4 0.2 -4 0.7 0 0.6 -0.6 1 -1.4 1 -0.8 0 -1.7 0.7 -2 1.5 -0.4 1.2 -1.4 1.4 -4.1 0.9 -3.2 -0.6 -3.7 -0.4 -4.2 1.5 -0.4 1.5 -1.1 2 -2.3 1.6 -2.4 -0.8 -7 1.4 -6.3 3 0.5 1.4 -3.1 3 -5.9 2.6 -1.1 -0.1 -1.6 0.3 -1.3 1.1 0.6 1.6 -8.9 8.2 -11.9 8.3 -1.3 0 -2 0.6 -1.8 1.6 0.1 0.9 -2.3 4.1 -5.3 7.1 -4.3 4.3 -6.1 5.5 -7.8 5.1 -1.8 -0.4 -1.9 -0.3 -0.7 0.6 1.3 0.9 1.2 1.1 -0.5 1.1 -1.5 0 -1.7 0.2 -0.6 0.9 2 1.3 0.5 3 -2.2 2.4 -1.6 -0.3 -1.8 -0.2 -0.8 0.5 2 1.4 0.6 4.2 -2.1 4.2 -1.7 0 -2 0.3 -0.9 0.9 2.1 1.3 -5.5 14.1 -8.4 14.1 -1.6 0 -1.7 0.2 -0.5 1 1.2 0.8 1 2.1 -1.5 9.6 -2.1 5.9 -3.6 8.9 -5 9.5 -1.1 0.4 -1.4 0.8 -0.7 0.8 2.4 0.2 1.1 7.1 -1.4 7.1 -0.8 0 -1.4 0.5 -1.4 1 0 0.6 0.5 1 1 1 0.6 0 1 0.9 1 2 0 1.1 -0.7 2 -1.5 2 -0.8 0 -1.5 0.7 -1.5 1.5 0 0.8 0.5 1.5 1 1.5 0.6 0 1 4.7 1 12 0 7.3 -0.4 12 -1 12 -0.5 0 -1 0.7 -1 1.5 0 0.8 0.7 1.5 1.5 1.5 1.8 0 2.1 4.6 0.3 5.3 -0.9 0.4 -0.7 0.6 0.3 0.6 1.8 0.1 4.5 10.3 2.8 10.9 -1.4 0.6 -1.1 2.2 0.5 2.2 0.7 0 1.6 0.9 1.9 2 0.3 1.1 0.1 2 -0.4 2 -0.5 0 -0.9 0.5 -0.9 1 0 0.6 0.7 1 1.5 1 0.9 0 1.8 0.8 2.2 1.8 0.3 0.9 2.4 5.5 4.7 10.2 2.2 4.7 3.9 9.3 3.8 10.3 -0.1 0.9 0.5 1.7 1.4 1.7 0.8 0 1.2 0.5 0.9 1 -0.3 0.6 0.1 1 0.9 1 1.4 0 2 1.2 1.7 3.3 0 0.4 0.5 0.7 1.2 0.7 1.3 0 4.3 4 3.9 5.3 -0.1 0.4 0.6 0.7 1.6 0.7 1.4 0 1.5 0.2 0.2 1 -1.3 0.8 -1.3 1 0.1 1 0.9 0 3.4 1.9 5.5 4.3 2.1 2.3 4.7 4.7 5.9 5.3 1.1 0.6 1.9 1.6 1.7 2.2 -0.1 0.7 0.7 1.2 1.8 1.2 1.1 0 2.3 0.7 2.6 1.5 0.4 0.8 1.3 1.5 2.1 1.5 0.8 0 1.1 0.5 0.8 1 -0.3 0.6 0.3 1 1.4 1 1.2 0 2.1 0.5 2.1 1 0 0.6 0.8 1 1.8 1 1 0 2.8 0.9 4 2 1.2 1.1 2.5 2 3 2 0.9 0 6.4 2.3 16.9 7.1 2.3 1 5.4 1.9 6.8 1.9 1.5 0 3.5 0.5 4.6 1.1 1.1 0.5 6.4 1.4 11.7 1.8 11.4 1 327.6 0.7 334.2 -0.2z"/>
  <path d="M470.2 306.8 c-4.3 -2.1 -4.1 -9.8 0.3 -9.8 2.7 0 3.6 2.1 3.2 7.7 -0.2 3.6 -0.2 3.6 -3.5 2.1z m1.6 -5.9 c-0.1 -1.3 -0.7 -2.3 -1.3 -2.2 -1.3 0.3 -1.8 3 -1.1 5 1 2.4 2.9 0.1 2.4 -2.8z"/>
  <path d="M476.8 302.5 c-0.5 -4 1.5 -4.4 2.1 -0.4 0.1 1.3 0.8 2.7 1.5 3.1 0.6 0.5 0.3 0.8 -1 0.8 -1.7 0 -2.3 -0.7 -2.6 -3.5z"/>
  <path d="M483.2 303.5 c0.6 -1.4 1.8 -2.5 2.6 -2.5 0.9 0 1.2 0.3 0.9 0.6 -0.3 0.4 -0.2 1.5 0.4 2.5 0.6 1.3 0.6 1.9 -0.1 1.9 -0.5 0 -1 -0.5 -1 -1.2 0 -0.9 -0.3 -0.9 -1.2 0 -2 2 -2.8 1.3 -1.6 -1.3z"/>
  <path d="M512.1 302.9 c-1.3 -3.8 -1.3 -3.9 -0.2 -3.9 0.5 0 1.2 1 1.5 2.3 l0.7 2.2 1.1 -2.5 c1.4 -3.3 2.2 -1.1 0.9 2.3 -1.4 3.6 -2.7 3.4 -4 -0.4z"/>
  <path d="M521 304 c0 -1.1 0.5 -2 1 -2 0.6 0 1 0.6 1 1.4 0 0.8 0.6 1.7 1.3 1.9 0.6 0.3 0.2 0.6 -1 0.6 -1.7 0.1 -2.3 -0.5 -2.3 -1.9z"/>
  <path d="M533.4 303.6 c-1 -4.1 -0.1 -6.1 2.6 -6.1 2.2 0 2.5 0.4 2.5 4 0 3.4 -0.4 4 -2.2 4.3 -1.7 0.3 -2.4 -0.3 -2.9 -2.2z m3.6 0.8 c0 -0.3 -0.7 -1.2 -1.5 -2 -1.6 -1.7 -1.8 -1.4 -0.9 1 0.6 1.5 2.4 2.3 2.4 1z"/>
  <path d="M498.3 301.8 c0 -0.7 -0.4 -2.2 -0.9 -3.3 -0.7 -1.8 -0.6 -1.9 1.1 -0.5 1.4 1.1 1.9 1.2 2.2 0.3 0.3 -0.7 0.8 -1.3 1.3 -1.3 0.5 0 0.3 1.4 -0.3 3 -1.1 3 -3.3 4.1 -3.4 1.8z"/>
  <path d="M520.3 300.4 c-1.6 -0.7 -0.5 -3.4 1.3 -3.4 0.8 0 1.4 0.9 1.4 2 0 2 -0.5 2.3 -2.7 1.4z"/>
  <path d="M241.5 107 c-1.4 -1.6 -1.5 -2 -0.4 -2 0.8 0 2 0.5 2.5 1 1.4 1.4 4.4 0.2 4.4 -1.6 0 -0.8 0.5 -1.4 1 -1.4 1.8 0 1.1 3.9 -0.9 5 -2.9 1.5 -4.6 1.2 -6.6 -1z"/>
  <path d="M205 101.6 c0 -4.2 -0.4 -6.6 -1.2 -6.9 -2.1 -0.7 -0.2 -1.8 4.1 -2.4 3.3 -0.5 4.1 -0.3 4.1 1.1 0 0.9 -0.8 1.6 -2 1.6 -1.8 0 -2 0.7 -2 6.5 0 5.1 -0.3 6.5 -1.5 6.5 -1.2 0 -1.5 -1.4 -1.5 -6.4z"/>
  <path d="M240 94.5 c0 -1.7 0.5 -2.5 1.3 -2.2 0.6 0.2 1.2 1.2 1.2 2.2 0 1 -0.6 2 -1.2 2.3 -0.8 0.2 -1.3 -0.6 -1.3 -2.3z"/>
  <path d="M248 95.5 c0 -0.8 0 -1.8 -0.1 -2.2 0 -0.4 0.4 -0.9 1 -1.1 0.6 -0.2 1.1 0.8 1.1 2.2 0 1.4 -0.4 2.6 -1 2.6 -0.5 0 -1 -0.7 -1 -1.5z"/>
  <path d="M189.5 94 c2.2 -2.4 5.8 -2.6 7.6 -0.4 1.2 1.5 1 1.6 -1.8 1 -1.8 -0.4 -3.4 -0.3 -3.8 0.3 -0.3 0.6 -1.3 1.1 -2.2 1.1 -1.4 0 -1.4 -0.3 0.2 -2z"/>
  <path d="M228.8 95.3 c-1.6 -0.2 -2.8 -1.1 -2.8 -1.9 0 -1.1 1.4 -1.4 5.9 -1.4 5.4 0 8.4 1.1 6.4 2.3 -1.5 0.9 -6.8 1.4 -9.5 1z"/>
  <path d="M254.5 94 c2.2 -2.4 7 -2.7 7.9 -0.4 0.5 1.3 0.1 1.4 -2.3 0.9 -1.7 -0.3 -3.2 -0.2 -3.6 0.4 -0.3 0.6 -1.3 1.1 -2.2 1.1 -1.4 0 -1.4 -0.3 0.2 -2z"/>
  <path d="M51 301 c0 -0.5 -0.8 -1 -1.8 -1 -2.6 0 -5.2 -3.6 -5.2 -7 0 -3.6 1.2 -3.9 2.9 -0.7 0.7 1.3 2.7 3.2 4.4 4.2 5.2 3 6.2 5.5 2.2 5.5 -1.4 0 -2.5 -0.4 -2.5 -1z"/>
 </g>
 <g fill="#2dfd27">
  <path d="M35 319.3 c-2.3 -0.9 -3 -2.4 -3 -7.1 0 -3.5 0.6 -4.9 2.9 -7.3 2.5 -2.4 3.8 -2.9 7.9 -2.9 2.8 0 5.7 0.3 6.6 0.6 2.2 0.8 2.2 7.4 0.1 7.4 -0.8 0 -1.5 -0.7 -1.5 -1.5 0 -1 -1 -1.5 -3.4 -1.5 -4 0 -8.8 4.2 -7.9 6.8 1.1 3 1.5 3.4 2.2 2.3 0.4 -0.6 2.6 -1.2 4.9 -1.4 3.2 -0.1 4.2 -0.6 4.2 -1.9 0 -1 0.5 -1.8 1 -1.8 1.7 0 1.2 7.7 -0.6 8.4 -1.9 0.7 -11.3 0.7 -13.4 -0.1z"/>
 </g>
 <g fill="#008ed9">
  <path d="M211 219 l0 -8 4 0 c3.5 0 4.2 0.4 5.1 2.7 0.7 2 0.6 3 -0.5 4.1 -1.2 1.3 -1.2 1.8 0.5 4.6 2.2 3.5 2.4 4.6 0.8 4.6 -0.5 0 -1.7 -1.6 -2.5 -3.5 -2 -4.9 -5.4 -4.9 -5.4 0 0 1.9 -0.4 3.5 -1 3.5 -0.6 0 -1 -3.3 -1 -8z m7 -3.5 c0 -2 -0.5 -2.5 -2.5 -2.5 -2 0 -2.5 0.5 -2.5 2.5 0 2 0.5 2.5 2.5 2.5 2 0 2.5 -0.5 2.5 -2.5z"/>
  <path d="M223 224.5 c0 -1.4 0.5 -2.5 1 -2.5 0.6 0 1 1.1 1 2.5 0 1.4 -0.4 2.5 -1 2.5 -0.5 0 -1 -1.1 -1 -2.5z"/>
  <path d="M238 225.5 c-0.7 -0.9 -0.9 -1.9 -0.5 -2.3 0.4 -0.4 1 -0.1 1.2 0.6 0.7 2 2.9 1.4 4.7 -1.3 2.2 -3.4 2 -5.8 -0.9 -8.9 -2.2 -2.4 -2.2 -2.6 -0.5 -2.6 2.5 0 4 2.9 4 7.7 0 6.6 -4.8 10.7 -8 6.8z"/>
  <path d="M248.7 226.3 c-0.4 -0.3 -0.7 -3.9 -0.7 -8 l0 -7.3 3.9 0 c2.1 0 4.3 0.6 4.8 1.3 1.3 1.6 1.4 5.5 0.2 6.2 -0.5 0.4 -0.3 1.8 0.6 3.5 0.8 1.6 1.5 3.4 1.5 4 0 2.1 -1.7 0.9 -3.3 -2.5 -0.9 -1.9 -2.3 -3.5 -3.2 -3.5 -1 0 -1.5 1 -1.5 3.5 0 3.3 -0.8 4.3 -2.3 2.8z m6.7 -9.2 c1 -1.6 -0.5 -4.1 -2.5 -4.1 -1.4 0 -1.9 0.7 -1.9 2.5 0 1.8 0.5 2.5 1.9 2.5 1.1 0 2.2 -0.4 2.5 -0.9z"/>
 </g>
 <g fill="#7d7d7d">
  <path d="M20.8 331.4 c-0.5 -0.4 -0.8 -1.4 -0.8 -2.3 0 -1.4 1.8 -1.6 12.8 -1.7 7 -0.1 17.2 -0.4 22.7 -0.7 5.5 -0.4 61.3 -0.9 124 -1.2 62.7 -0.3 126.8 -0.8 142.5 -1 15.7 -0.2 74 -0.7 129.5 -1 55.6 -0.3 120.2 -0.8 143.8 -1.1 l42.7 -0.7 0 -22.1 c0 -12.2 -0.5 -63.1 -1.1 -113.1 -0.7 -68 -1.3 -91.3 -2.2 -92.2 -0.7 -0.6 -9.6 -5.5 -19.8 -10.7 l-18.6 -9.6 -190 0 -190 0 -2.9 -2.2 c-1.6 -1.3 -11.9 -8.9 -22.9 -17 l-20 -14.8 -46.7 0 -46.6 0 -16.4 14 c-28.1 24.2 -31.7 27.5 -31.8 28.8 0 0.6 -0.6 1.2 -1.4 1.2 -0.7 0 -1.8 0.6 -2.4 1.2 -0.7 0.9 -1.2 23.4 -1.6 64.3 -0.3 34.7 -0.9 81.9 -1.2 104.9 -0.5 34.3 -0.3 42 0.8 42.7 1 0.7 1 1.2 -0.4 2.6 -1 0.9 -2.1 1.3 -2.5 0.9 -0.7 -0.7 -0.5 -81.4 0.2 -130.1 0.2 -9.3 0.3 -32.5 0.4 -51.5 l0.2 -34.5 15.1 -13 c8.3 -7.2 18.2 -15.7 21.8 -19 3.7 -3.3 9.3 -8.2 12.5 -10.9 l5.7 -4.9 49 0.2 49 0.1 2.6 2.6 c1.5 1.3 9.5 7.4 17.7 13.4 8.3 6 15.6 11.4 16.2 12 0.7 0.6 3.2 2.3 5.5 3.9 l4.3 2.9 188.6 -0.5 188.7 -0.5 9.8 5 c5.5 2.8 13.3 6.9 17.4 9.1 4.1 2.2 9.4 4.9 11.8 6.1 l4.2 2.2 0 7.1 c0 4 0.2 17.1 0.5 29.2 0.2 12.1 0.7 60.3 1.1 107 0.3 46.8 0.7 86.1 0.8 87.5 l0.1 2.5 -14 0.6 c-7.7 0.3 -39.9 0.7 -71.5 0.8 -31.6 0.1 -72.1 0.4 -90 0.7 -23.4 0.4 -33.8 0.3 -36.9 -0.6 -3.4 -0.9 -4.6 -0.9 -5.1 0 -0.6 0.9 -0.9 0.9 -1.4 -0.1 -0.4 -1 -0.8 -1.1 -1.2 -0.2 -0.4 0.8 -10 1.1 -34.7 1.3 -18.8 0 -42.1 0.3 -51.7 0.5 -9.6 0.2 -67.4 0.6 -128.5 1 -61 0.3 -128.1 0.8 -149 1.1 -20.9 0.3 -38.3 0.2 -38.7 -0.2z"/>
  <path d="M31.1 324.7 c-2.5 -0.5 -4.1 -1.4 -4.1 -2.2 0 -1.1 1.9 -1.4 8.8 -1.3 4.8 0 10.6 -0.3 13 -0.7 5.3 -0.9 5.4 0.4 0.2 3.4 -4.1 2.3 -9.1 2.5 -17.9 0.8z"/>
  <path d="M470.2 306.6 c-3.9 -1.9 -4.2 -7.9 -0.6 -9.3 1.6 -0.6 4.4 1.9 4.4 3.9 0 1.7 -1.8 0.7 -2.3 -1.3 -0.8 -2.9 -2.7 -1.4 -2.7 2.2 0 2.9 2.4 4.2 3.3 1.7 0.2 -0.7 0.6 -0.1 0.9 1.5 0.6 2.9 0.4 3 -3 1.3z"/>
  <path d="M476.8 302.5 c-0.2 -2 0 -3.4 0.6 -3.2 0.5 0.2 1 1.3 1.1 2.6 0.1 1.3 0.8 2.7 1.6 3.2 1.1 0.7 0.9 0.9 -0.7 0.9 -1.7 0 -2.3 -0.7 -2.6 -3.5z"/>
  <path d="M483 304.1 c0.5 -1.1 0.7 -2.8 0.4 -3.8 -0.5 -1.5 -0.4 -1.6 0.6 -0.3 0.9 1.1 1.3 1.2 1.7 0.3 0.2 -0.7 0.9 -1.3 1.4 -1.3 0.6 0 0.6 0.7 0 1.8 -0.6 1.1 -0.6 2.4 0 3.5 0.7 1.1 0.7 1.7 0 1.7 -0.5 0 -1.2 -0.6 -1.5 -1.2 -0.5 -1 -0.7 -1 -1.2 0 -0.3 0.6 -1 1.2 -1.5 1.2 -0.6 0 -0.6 -0.8 0.1 -1.9z"/>
  <path d="M497.2 303.8 c0.7 -1.3 1.1 -2.6 1 -3 -0.1 -0.5 0.4 -0.8 1.2 -0.8 0.7 0 1.6 1 2 2.3 0.9 3.5 0.7 4.2 -0.7 2.3 -1.2 -1.7 -1.4 -1.7 -2 -0.2 -0.4 0.9 -1.1 1.6 -1.7 1.6 -0.7 0 -0.6 -0.8 0.2 -2.2z"/>
  <path d="M534.3 303.8 c0.4 -1.2 0.7 -2.6 0.7 -3 0 -1.5 2 -0.8 2 0.7 0 0.8 -0.4 1.5 -1 1.5 -0.5 0 -1 0.5 -1 1 0 2 1.9 0.9 2.9 -1.7 l1 -2.8 -0.2 3 c-0.2 2.3 -0.7 3.1 -2.6 3.3 -2.1 0.3 -2.3 0.1 -1.8 -2z"/>
  <path d="M511.7 301.6 c-0.4 -1 -0.5 -2.1 -0.2 -2.4 0.9 -0.9 1.7 0.6 1.3 2.5 -0.3 1.7 -0.4 1.7 -1.1 -0.1z"/>
  <path d="M533.2 300 c0.2 -1.6 1 -2.6 2.3 -2.8 1.2 -0.2 1.6 0 0.9 0.5 -0.6 0.4 -1.6 1.7 -2.3 2.8 -1.1 1.9 -1.1 1.9 -0.9 -0.5z"/>
  <path d="M205 106 c0 -1.1 0.4 -2 0.9 -2 0.5 0 1.1 0.9 1.4 2 0.3 1.3 0 2 -0.9 2 -0.8 0 -1.4 -0.9 -1.4 -2z"/>
  <path d="M231 101.5 c0 -5.8 -0.2 -6.5 -1.9 -6.5 -1.1 0 -2.3 -0.4 -2.6 -1 -0.4 -0.6 1.7 -1 5.4 -1 3.4 0 6.1 0.4 6.1 1 0 0.6 -0.9 1 -2 1 -1.8 0 -2 0.7 -2 6.5 0 5.1 -0.3 6.5 -1.5 6.5 -1.2 0 -1.5 -1.4 -1.5 -6.5z"/>
  <path d="M241.2 106.8 c-0.7 -0.7 -1.2 -3.9 -1.2 -7.5 0 -4.9 0.3 -6.3 1.5 -6.3 1.2 0 1.5 1.3 1.5 5.9 0 3.3 0.3 6.6 0.6 7.5 0.7 1.9 -0.7 2.1 -2.4 0.4z"/>
  <path d="M205 96.7 c0 -0.7 -1.2 -1.8 -2.7 -2.4 -2.5 -1 -2.1 -1.1 3.5 -1.2 3.5 -0.1 6.2 0.3 6.2 0.9 0 0.6 -1.1 1 -2.5 1 -1.6 0 -2.5 0.6 -2.5 1.5 0 0.8 -0.4 1.5 -1 1.5 -0.5 0 -1 -0.6 -1 -1.3z"/>
 </g>
 <g fill="#00a4f5">
  <path d="M198 225.9 c0 -3.3 4.2 -14.9 5.4 -14.9 1.2 0 5.6 11.7 5.6 14.9 0 1.9 -1.7 1.2 -2.3 -0.9 -0.3 -1.4 -1.4 -2 -3.2 -2 -1.8 0 -2.9 0.6 -3.2 2 -0.6 2.1 -2.3 2.8 -2.3 0.9z m7 -6.1 c0 -0.7 -0.3 -2.4 -0.7 -3.6 -0.4 -1.8 -0.8 -2 -1.4 -1 -1.4 2.2 -1 5.8 0.6 5.8 0.8 0 1.5 -0.6 1.5 -1.2z"/>
  <path d="M211.1 219 c-0.1 -7.7 -0.1 -8 2.1 -8 5.9 0 9.3 3.5 6.6 6.7 -0.7 0.9 -0.7 2.1 0.2 4.3 1.7 4.1 0.6 5 -1.5 1.1 -0.8 -1.7 -2 -3.1 -2.5 -3.1 -0.6 0 -1 -0.4 -1 -1 0 -0.5 0.6 -1 1.4 -1 2.1 0 2.7 -2.8 0.9 -4.5 -2.7 -2.8 -3.8 -1.1 -4.1 6.3 -0.2 4 -0.7 7.2 -1.1 7.2 -0.5 0 -0.9 -3.6 -1 -8z"/>
  <path d="M223 219 c0 -6.3 0.3 -8 1.4 -8 0.8 0 2 1.7 2.7 3.8 l1.2 3.7 1.2 -3.5 c0.6 -1.9 1.9 -3.6 2.8 -3.8 1.5 -0.3 1.7 0.7 1.7 7.7 0 9.5 -1.8 10.9 -2.2 1.9 -0.3 -5.6 -0.5 -6 -1.2 -3 -0.5 1.7 -1.4 3.2 -2.1 3.2 -0.7 0 -1.7 -1.5 -2.3 -3.2 -0.9 -3.1 -1 -2.9 -1.1 3 -0.1 3.4 -0.5 6.2 -1.1 6.2 -0.6 0 -1 -3.3 -1 -8z"/>
  <path d="M237.5 225 c-1.8 -2 -2 -11.1 -0.3 -12.8 3.6 -3.6 8.8 0.3 8.8 6.4 -0.1 6.7 -4.9 10.4 -8.5 6.4z m5.5 -1.9 c1.5 -2.8 1.2 -7.4 -0.5 -9.7 -1.5 -1.9 -1.5 -1.9 -3 0 -1.5 2 -2 7.2 -0.9 10 0.8 2.2 3.1 2 4.4 -0.3z"/>
  <path d="M248.9 225.6 c-0.2 -0.2 -0.2 -3.6 -0.1 -7.6 l0.4 -7.1 3.1 0.2 c4.1 0.4 5.7 1.6 5.7 4.5 0 2.2 -2.5 4.4 -4.9 4.4 -1.9 0 -1.2 -1.7 0.9 -2.3 2.3 -0.6 2.5 -1.6 0.6 -4.2 -0.8 -1.1 -1.9 -1.6 -3 -1.2 -1.4 0.6 -1.7 1.8 -1.5 6.7 0.2 5.5 -0.1 7.6 -1.2 6.6z"/>
  <path d="M256.1 223 c-0.5 -1.6 -0.6 -3 -0.1 -3 0.4 0 1.3 1.4 1.9 3 0.5 1.7 0.6 3 0.1 3 -0.4 0 -1.3 -1.3 -1.9 -3z"/>
 </g>
 <g fill="#5efa56">
  <path d="M36 320 c0 -0.5 -0.9 -1 -1.9 -1 -2.4 0 -3.1 -1.9 -3.1 -7.9 0 -3.4 0.6 -5.6 2.1 -7.5 1.8 -2.3 2.8 -2.6 7.9 -2.6 7.9 0 9 0.5 9 4.6 0 1.9 -0.4 3.4 -1 3.4 -0.5 0 -1 -0.6 -1 -1.4 0 -1.5 -2.1 -2.6 -5.2 -2.6 -2.3 0 -7.8 5.2 -7.8 7.4 0 2.9 2.7 4.4 7.4 4 4.3 -0.3 4.6 -0.2 4.6 2.1 0 2.4 -0.3 2.5 -5.5 2.5 -3 0 -5.5 -0.4 -5.5 -1z"/>
 </g>
 <g fill="#939393">
  <path d="M470.3 306.7 c-2.2 -1.1 -3.9 -4.7 -2.2 -4.7 0.5 0 0.9 0.7 0.9 1.5 0 0.8 0.7 1.5 1.5 1.5 1.9 0 2.1 -6.6 0.3 -7.3 -1 -0.4 -1 -0.6 -0.1 -0.6 2.2 -0.2 3.5 3.8 2.5 6.9 -0.6 1.6 -0.8 3.1 -0.5 3.4 0.8 0.8 0.3 0.6 -2.4 -0.7z"/>
  <path d="M477.4 304.5 c-1 -2.6 0.1 -3.5 1.3 -1 0.6 1.4 0.7 2.5 0.2 2.5 -0.5 0 -1.2 -0.7 -1.5 -1.5z"/>
  <path d="M483.4 302.5 c0 -2.3 0.3 -3 0.9 -2.2 0.7 0.9 1 0.9 1.4 0 0.2 -0.7 0.9 -1.3 1.5 -1.3 0.6 0 0.5 0.7 -0.3 1.6 -1 1.2 -1 2 -0.1 3.5 0.7 1 0.8 1.9 0.3 1.9 -0.5 0 -1.2 -0.6 -1.4 -1.2 -0.4 -1 -0.7 -1 -1.4 -0.1 -0.6 0.8 -0.9 0.1 -0.9 -2.2z"/>
  <path d="M500.6 304.4 c-0.5 -1.4 -0.9 -1.4 -2.3 -0.3 -1.5 1.3 -1.5 1.2 -0.5 -0.7 0.6 -1.2 0.7 -2.6 0.1 -3.5 -1.4 -2.3 -1 -3.6 0.6 -1.5 1.3 1.7 1.5 1.7 2.1 0.3 0.3 -1 1 -1.7 1.5 -1.7 0.5 0 0.4 1.1 -0.2 2.4 -0.8 1.7 -0.8 2.9 0 4.5 0.7 1.1 0.8 2.1 0.2 2.1 -0.5 0 -1.2 -0.7 -1.5 -1.6z"/>
  <path d="M512.1 302.8 c-1.4 -4 -0.5 -5.1 1 -1.2 l1.1 2.9 1.3 -3 c1.5 -3.5 2 -1.9 0.5 1.9 -1.3 3.5 -2.6 3.3 -3.9 -0.6z"/>
  <path d="M519.8 305.3 c1.5 -0.6 1.6 -5.3 0.1 -5.3 -0.8 0 -0.8 -0.5 0.1 -1.5 2.1 -2.6 3 -1.7 3 3 0 4 -0.2 4.5 -2.2 4.4 -1.3 0 -1.7 -0.3 -1 -0.6z"/>
  <path d="M533.7 305.4 c-1 -1 -0.9 -5.6 0.2 -7.2 0.5 -0.8 1.7 -1.2 2.7 -1 2.9 0.5 2.7 8.2 -0.1 8.6 -1.2 0.2 -2.4 0 -2.8 -0.4z m3.8 -1.5 c0.9 -1.3 -0.3 -5.9 -1.4 -5.9 -1.3 0 -2.2 3 -1.6 5.1 0.7 2.1 2 2.5 3 0.8z"/>
  <path d="M535 301.5 c0 -0.8 0.5 -1.5 1 -1.5 0.6 0 1 0.7 1 1.5 0 0.8 -0.4 1.5 -1 1.5 -0.5 0 -1 -0.7 -1 -1.5z"/>
  <path d="M242 107 c-2 -2 -2.8 -6 -1.2 -6 0.4 0 1.3 1.3 1.9 3 1.3 3.4 4.2 4 5 1 0.7 -2.6 2.3 -2.6 2.3 0 0 1.8 -2.6 4 -4.9 4 -0.6 0 -2 -0.9 -3.1 -2z"/>
  <path d="M254.4 107.4 c-1.8 -1.5 -1.8 -1.5 0.6 -1 1.4 0.3 2.8 0.6 3.3 0.6 0.4 0 0.7 0.5 0.7 1 0 1.5 -2.4 1.2 -4.6 -0.6z"/>
 </g>
 <g fill="#91cb8d">
 </g>
 <g fill="#aeb1ae">
  <path d="M25 322.8 c-2.1 -0.8 -2.2 -1.2 -1.6 -7 0.9 -7.4 1.7 -9.1 6.7 -14.3 l3.8 -4 0.1 -100 c0.1 -55 0.4 -101.9 0.7 -104.2 l0.5 -4.3 4.3 0 c4.5 0 8 2.4 5.6 3.9 -1.5 1 -1.7 106.4 -0.1 106.9 0.6 0.2 1 16.9 1 45.9 -0.1 49.7 -0.2 48.7 5.7 51.5 2.8 1.3 2.8 1.5 3.1 11.6 l0.3 10.2 -2.8 1.1 c-1.5 0.6 -4 1.7 -5.4 2.5 -2.9 1.5 -18 1.7 -21.9 0.2z m20.5 -6.4 c2 -1.3 2.5 -2.5 2.5 -6 0 -4.8 -1.7 -6.4 -6.9 -6.4 -4.7 0 -9 6.9 -6.3 10.5 2.5 3.4 7.1 4.2 10.7 1.9z"/>
  <path d="M467.9 303.9 c-1.3 -2.5 0.2 -7 2.3 -6.8 1 0 1 0.2 0.1 0.6 -0.7 0.2 -1.3 2 -1.3 3.8 0 1.8 0.6 3.6 1.3 3.8 0.9 0.4 0.9 0.6 0 0.6 -0.7 0.1 -1.7 -0.9 -2.4 -2z"/>
  <path d="M483.2 304.1 c0.9 -1.5 0.9 -2.3 -0.1 -3.5 -0.9 -1.1 -1 -1.6 -0.2 -1.6 0.6 0 1.1 0.5 1.1 1.1 0 0.6 0.6 0.9 1.3 0.6 0.7 -0.3 1.2 0.4 1.2 1.8 0 1.4 -0.5 2.1 -1.2 1.8 -0.7 -0.3 -1.3 0 -1.3 0.6 0 0.6 -0.5 1.1 -1 1.1 -0.6 0 -0.5 -0.8 0.2 -1.9z"/>
  <path d="M497 305.8 c0 -1.4 2.3 -5.8 3.2 -5.8 0.4 0 0.7 0.3 0.6 0.8 -0.1 0.4 0.4 1.8 1.1 3.2 1.4 2.5 1.4 2.5 -0.7 0.7 -2 -1.8 -2.1 -1.8 -3.1 0 -0.6 1 -1.1 1.5 -1.1 1.1z"/>
  <path d="M520.8 302.4 c0.4 -2.9 0.2 -3.5 -0.9 -2.8 -1.2 0.7 -1.2 0.5 0 -0.9 1.9 -2.3 2.9 -2.1 2.7 0.6 -0.1 1.2 0.1 3.2 0.6 4.5 0.6 1.7 0.4 2.2 -1 2.2 -1.5 0 -1.7 -0.7 -1.4 -3.6z"/>
  <path d="M533.4 303.6 c-0.8 -3.5 0.4 -6.6 2.6 -6.6 2.2 0 3.4 3.1 2.6 6.6 -0.4 1.5 -1.4 2.4 -2.6 2.4 -1.2 0 -2.2 -0.9 -2.6 -2.4z m4.1 -2.1 c0 -1.6 -0.5 -3 -1.2 -3.2 -1.4 -0.5 -2.8 4 -1.8 5.7 1.2 1.9 3 0.4 3 -2.5z"/>
  <path d="M242.7 107.8 c-2 -1.5 -3.5 -7.8 -1.9 -7.8 0.6 0 1.2 1.2 1.4 2.6 0.4 3.7 3.5 5.5 5.2 3.2 1.4 -1.9 2.6 -2.4 2.6 -1 -0.1 2.9 -4.8 4.8 -7.3 3z"/>
  <path d="M204.8 95.5 c-0.5 -2.3 -0.2 -2.5 3.1 -2.4 3.2 0 3.3 0.1 1.4 0.9 -1.3 0.5 -2.3 1.6 -2.3 2.5 0 2.5 -1.7 1.7 -2.2 -1z"/>
 </g>
 <g fill="#98f88f">
 </g>
 <g fill="#bfbebf">
  <path d="M27.8 323.7 l-3.8 -1.1 0 -6.3 c0 -7.5 1.4 -10.6 6.8 -15.5 l3.9 -3.6 0.1 -101.3 c0.1 -55.8 0.3 -102.3 0.6 -103.4 0.2 -1.1 0.5 -2.3 0.5 -2.7 0.1 -1.1 4.5 -1 7.6 0.2 l2.6 1 -0.1 58 c-0.1 53.7 -0.2 58 -1.8 58 -1.1 0 -1.3 0.3 -0.5 0.8 0.6 0.4 1.3 2.8 1.6 5.4 0.4 3.9 0.2 4.7 -1.4 5.1 -1.2 0.3 -2.1 -0.2 -2.5 -1.7 -0.4 -1.1 -0.7 -28.8 -0.6 -61.4 0.1 -57.6 -0.2 -66.2 -2.9 -63.5 -1.4 1.4 -2.1 196.7 -0.6 200.9 1 3 0.7 3.5 -4.6 9.8 -5.1 6 -5.7 7.2 -5.7 11.2 0 5 0.8 5.6 9.2 6.8 4.7 0.7 9.4 -0.6 8.3 -2.4 -0.3 -0.4 0.4 -0.6 1.4 -0.3 1 0.3 2.8 0 4 -0.6 1.8 -1 2.1 -2.1 2.1 -8.1 l0 -7 -5 -3.6 c-2.7 -2 -5 -4.1 -5.1 -4.7 -0.3 -6.4 0.3 -71.1 0.8 -72.2 0.3 -0.8 1 -1.5 1.7 -1.5 0.8 0 1.1 9.4 1 35.3 0 32.7 0.1 35.4 1.8 37.9 1.1 1.5 3.1 3.3 4.6 4 3.9 1.9 5.2 5.3 5.2 14.6 l0 8.2 -5.6 2.5 c-6.2 2.7 -16.3 3.2 -23.6 1.2z"/>
  <path d="M497.6 303.4 c1.3 -1.9 1.4 -2.8 0.5 -3.7 -0.6 -0.6 -1.1 -1.6 -1.1 -2.1 0 -0.6 0.7 -0.2 1.5 0.8 1.3 1.7 1.5 1.7 2.1 0.3 0.3 -1 1 -1.7 1.6 -1.7 0.5 0 0.2 1 -0.6 2.1 -1.3 1.9 -1.3 2.5 0.1 4.8 1.4 2.5 1.4 2.5 -0.2 0.6 -1.5 -1.9 -1.7 -1.9 -2.9 -0.2 -2 2.7 -2.8 2 -1 -0.9z"/>
  <path d="M512.6 303.8 c-0.9 -3.5 -0.6 -4.6 0.5 -1.8 l1.1 2.5 1.3 -3 c1.6 -3.7 1.9 -2.9 0.4 1.4 -1.3 3.7 -2.4 4 -3.3 0.9z"/>
  <path d="M533.4 303.5 c-1 -2.6 0.5 -6.5 2.5 -6.5 2.6 0 4.5 6 2.3 7.3 -0.4 0.3 -0.7 -0.9 -0.7 -2.6 0 -2.2 -0.5 -3.2 -1.5 -3.2 -1 0 -1.5 1 -1.5 3.3 0 3.5 -0.3 4 -1.1 1.7z"/>
  <path d="M484 302.2 c0 -0.4 0.9 -1.3 2 -2 1.9 -1.2 2 -1.1 0.8 0.8 -1.3 2 -2.8 2.7 -2.8 1.2z"/>
  <path d="M243.4 108 c-1.3 -0.5 -2.4 -2.1 -2.8 -4 -0.9 -4.9 -0.7 -11 0.4 -11 0.6 0 1 2.4 1 5.4 0 3 0.3 6.1 0.6 7 0.7 1.9 3.5 2.1 5.2 0.4 0.9 -0.9 1.2 -0.9 1.2 0 0 1.8 -3.3 3.1 -5.6 2.2z"/>
  <path d="M230.8 95.5 c-0.5 -2.4 -0.3 -2.5 3.6 -2.4 2.5 0.1 3.2 0.3 1.7 0.6 -1.3 0.3 -2.6 1.3 -2.8 2.4 -0.7 2.7 -2 2.4 -2.5 -0.6z"/>
 </g>
 <g fill="#d8d7d8">
  <path d="M470.2 306.2 c-3.1 -2.4 -2.9 -8.7 0.3 -8.7 1.7 0 2 0.7 2 5.3 0.1 2.8 0.1 5.2 0 5.2 0 0 -1 -0.9 -2.3 -1.8z m1.8 -4.7 c0 -2.4 -0.5 -3.5 -1.5 -3.5 -1 0 -1.5 1.1 -1.5 3.5 0 2.4 0.5 3.5 1.5 3.5 1 0 1.5 -1.1 1.5 -3.5z"/>
  <path d="M477.6 304.8 c-1.1 -3.7 -1.3 -5.8 -0.5 -5.8 0.5 0 0.9 1.3 0.9 2.9 0 1.6 0.6 3.2 1.3 3.4 0.9 0.4 0.9 0.6 -0.1 0.6 -0.7 0.1 -1.4 -0.5 -1.6 -1.1z"/>
  <path d="M482.9 304.8 c0.7 -1 1.1 -2.4 0.8 -3.1 -0.3 -0.7 0.3 -1.3 1.3 -1.3 1 0 1.6 0.6 1.3 1.3 -0.3 0.7 0.1 2.1 0.8 3.1 1.3 1.5 1.2 1.6 -0.3 0.3 -1.5 -1.1 -2.1 -1.1 -3.5 0 -1.6 1.3 -1.7 1.2 -0.4 -0.3z"/>
  <path d="M497.5 304.4 c0.4 -1 0.8 -2.7 0.9 -3.6 0 -0.9 0.2 -1.5 0.5 -1.3 0.2 0.3 1.1 -0.1 1.9 -0.8 1.3 -1 1.4 -0.9 0.4 0.9 -0.6 1.2 -1 2.3 -0.8 2.5 0.1 0.2 -0.6 1.3 -1.7 2.3 -2 1.9 -2 1.9 -1.2 0z"/>
  <path d="M513 305.4 c0 -0.3 0.7 -1.2 1.5 -2 1.6 -1.7 1.8 -1.4 0.9 1 -0.6 1.5 -2.4 2.3 -2.4 1z"/>
  <path d="M520.6 302 c0.2 -5.4 1.4 -6.5 1.4 -1.2 0 2.3 0.5 4.2 1.3 4.5 0.6 0.3 0.3 0.6 -0.8 0.6 -1.7 0.1 -2 -0.5 -1.9 -3.9z"/>
  <path d="M533.4 303.3 c-0.8 -2.9 0.6 -5.8 2.6 -5.8 2 0 3.4 2.9 2.6 5.8 -0.4 1.8 -1.3 2.7 -2.6 2.7 -1.3 0 -2.2 -0.9 -2.6 -2.7z m4.1 -1.9 c0 -1.9 -0.5 -2.9 -1.5 -2.9 -1.6 0 -2.5 2.8 -1.6 5.1 1 2.5 3.1 1 3.1 -2.2z"/>
  <path d="M205 101.1 c0 -5.8 -0.3 -7 -1.7 -7.4 -1 -0.3 0 -0.5 2.2 -0.5 2.2 0 3.4 0.2 2.8 0.5 -0.9 0.3 -1.3 2.8 -1.3 7.4 0 3.9 -0.4 6.9 -1 6.9 -0.6 0 -1 -3 -1 -6.9z"/>
  <path d="M231 101.1 c0 -6.8 -0.1 -7 -2.7 -7.4 -1.6 -0.2 -0.5 -0.4 2.2 -0.5 2.8 0 4.4 0.2 3.8 0.5 -0.9 0.3 -1.3 2.8 -1.3 7.4 0 3.9 -0.4 6.9 -1 6.9 -0.6 0 -1 -3 -1 -6.9z"/>
  <path d="M245.8 107 c1.2 -0.5 2.2 -1.6 2.2 -2.5 0 -0.8 0.5 -1.5 1 -1.5 1.4 0 1.3 2.3 -0.2 3.8 -0.7 0.7 -2.1 1.2 -3.2 1.1 -2 0 -2 -0.1 0.2 -0.9z"/>
 </g>
 <g fill="#f5f5f5">
  <path d="M471.6 307.1 c-0.4 -0.5 -0.2 -2 0.3 -3.3 0.9 -2.1 0.9 -2 0.8 0.9 -0.2 3.6 -0.3 3.8 -1.1 2.4z"/>
  <path d="M484 303.6 c0.6 -0.6 0.5 -1.5 -0.3 -2.5 -0.9 -1.2 -0.9 -1.3 0 -0.7 0.7 0.4 1.7 1.5 2.2 2.4 0.7 1.4 0.5 1.8 -1 1.8 -1.2 0 -1.5 -0.4 -0.9 -1z"/>
  <path d="M189.8 108.3 c-3.2 -0.8 -1.9 -2.2 1.9 -2 5.4 0.3 5.7 -2.6 0.6 -5 -4.6 -2.2 -5.5 -5.4 -2.1 -7.7 2.8 -2 3.9 -2 6.4 -0.1 1.8 1.5 1.7 1.6 -1.2 1 -2 -0.4 -3.5 -0.1 -4.2 0.7 -1.4 1.8 -0.4 3.1 3.3 4.3 2.3 0.8 3.1 1.7 3.3 4 0.5 4.3 -2.6 6.2 -8 4.8z"/>
  <path d="M255.3 108.3 c-2.3 -0.9 -1.3 -1.8 2 -1.8 2.5 0 3.3 -0.5 3.5 -2.1 0.2 -1.6 -0.4 -2.3 -2.5 -2.9 -5.6 -1.4 -7.1 -5.1 -3.1 -7.9 2.8 -2 3.9 -2 6.4 -0.1 1.8 1.5 1.7 1.6 -1.2 1 -2 -0.4 -3.5 -0.1 -4.2 0.7 -1.4 1.8 -0.4 3.1 3.3 4.3 2.3 0.8 3.1 1.7 3.3 4 0.5 4.2 -3.2 6.6 -7.5 4.8z"/>
  <path d="M206 101.5 c-0.5 -6.8 -0.6 -7 -3.5 -7.6 -2 -0.4 -0.8 -0.7 3.5 -0.6 3.6 0 5.3 0.2 3.8 0.4 -2.6 0.4 -2.7 0.7 -3 7.6 l-0.4 7.2 -0.4 -7z"/>
  <path d="M215.4 100.8 c3 -9.8 4.6 -10 7.4 -0.7 1.2 4 2 7.4 1.8 7.7 -0.8 0.7 -2.6 -0.9 -2.6 -2.4 0 -2.3 -5.1 -1.8 -5.7 0.6 -0.3 1.1 -1.1 2 -1.8 2 -1 0 -0.8 -1.8 0.9 -7.2z m5.2 0 c-0.3 -1.3 -0.6 -2.9 -0.6 -3.6 0 -2.2 -1.7 -0.4 -2.2 2.3 -0.6 2.7 -0.1 3.5 2 3.5 1 0 1.3 -0.7 0.8 -2.2z"/>
  <path d="M232 101.5 c-0.5 -6.3 -0.7 -7 -3 -7.6 -1.6 -0.5 -0.4 -0.7 3.5 -0.7 3.3 0.1 4.8 0.3 3.3 0.5 -2.6 0.4 -2.7 0.7 -3 7.6 l-0.4 7.2 -0.4 -7z"/>
  <path d="M241.7 107.3 c-0.4 -0.3 -0.6 -3.8 -0.5 -7.7 l0.2 -7.1 0.5 7 c0.6 6.7 0.7 7 3.4 7.3 l2.7 0.3 0 -7 c0 -4.1 0.4 -7.1 1 -7.1 1.4 0 1.3 12.3 -0.2 13.8 -1.3 1.3 -6 1.6 -7.1 0.5z"/>
 </g>
<g opacity="0.5" transform="rotate(-45, 333.0, 187.5)">
  <text x="50%" y="50%" font-size="20" text-anchor="middle" fill="lightgray" dominant-baseline="middle">
    generated by vectorizer.io
  </text>
</g>
</svg>